<svg version="1.1" id="Layer_1" xmlns="http://www.w3.org/2000/svg" xmlns:xlink="http://www.w3.org/1999/xlink" x="0px" y="0px"
	 width="100%" viewBox="0 0 352 348" enable-background="new 0 0 352 348" xml:space="preserve" fill="#4CAF50">
<path fill="#FFF2E7" opacity="1.000000" stroke="none" 
	d="
M195.000000,349.000000 
	C130.000015,349.000000 65.500023,349.000000 1.000026,349.000000 
	C1.000017,233.000031 1.000017,117.000061 1.000009,1.000073 
	C118.333282,1.000048 235.666565,1.000048 352.999878,1.000024 
	C352.999939,116.999931 352.999939,232.999863 352.999969,348.999878 
	C300.500000,349.000000 248.000000,349.000000 195.000000,349.000000 
M182.033218,134.047165 
	C182.033218,134.047165 182.067947,134.117905 182.437943,133.852692 
	C182.673126,133.628952 182.783905,133.354935 183.058029,132.733704 
	C183.058029,132.733704 183.137573,132.327942 183.735992,131.945084 
	C194.783905,110.705719 197.230499,88.784264 188.958878,65.355614 
	C188.569717,64.574142 188.180542,63.792664 187.691254,62.337772 
	C186.852661,60.731384 186.014053,59.124996 185.192642,57.213684 
	C185.192642,57.213684 184.972015,57.002502 184.905930,56.344570 
	C184.321243,55.437729 183.736542,54.530888 183.106537,53.264065 
	C183.106537,53.264065 182.849197,53.008308 182.723221,52.388607 
	C182.222198,51.723801 181.721161,51.058994 181.226517,50.138237 
	C181.226517,50.138237 181.011322,49.999512 180.905212,49.389027 
	C180.266846,48.598427 179.628479,47.807827 179.001221,47.000759 
	C179.001221,47.000759 178.984283,47.008366 178.869141,46.448311 
	C178.212097,46.212811 177.555069,45.977310 176.263336,46.019287 
	C168.232559,51.854370 160.201782,57.689453 152.238998,63.475136 
	C167.526306,93.767761 164.935425,109.831001 141.152359,132.803223 
	C144.680771,137.542267 148.235062,142.316040 152.001236,147.673904 
	C152.662796,148.456833 153.324356,149.239746 154.002197,150.002243 
	C154.002197,150.002243 153.979385,150.011292 154.097397,150.597534 
	C154.639679,151.161240 155.181976,151.724930 155.776901,152.186111 
	C155.776901,152.186111 155.663452,152.206375 155.803116,152.786652 
	C156.189850,153.210022 156.576584,153.633377 156.999054,154.002731 
	C156.999054,154.002731 156.942383,154.033981 157.098557,154.601990 
	C157.597275,155.187164 158.095993,155.772324 158.767212,156.284348 
	C158.767212,156.284348 158.633759,156.415863 158.865021,157.029205 
	C160.438339,156.423615 162.011673,155.818024 164.104630,155.038330 
	C164.760864,154.418259 165.417099,153.798203 166.701035,152.988647 
	C167.605606,152.046463 168.510193,151.104279 169.869614,149.941498 
	C170.301315,149.433670 170.733032,148.925842 171.745544,148.105347 
	C172.554718,147.093750 173.363892,146.082153 174.645126,144.797256 
	C175.173004,144.068893 175.700897,143.340515 176.781952,142.258057 
	C177.236618,141.524612 177.691299,140.791183 178.593842,139.862091 
	C178.796936,139.428772 179.000015,138.995468 179.743530,138.200699 
	C180.162399,137.467331 180.581268,136.733978 181.206955,135.815964 
	C181.206955,135.815964 181.173767,135.540726 181.699692,135.195129 
	C181.837021,134.809952 181.974335,134.424759 182.033218,134.047165 
M106.948975,247.953094 
	C106.948975,247.953094 106.902115,247.877579 106.380333,248.237427 
	C106.205185,248.831924 106.030037,249.426407 105.692909,250.169464 
	C105.692909,250.169464 105.756630,250.379822 105.183510,250.829208 
	C99.229958,262.375458 96.410278,274.595703 96.797844,287.700684 
	C107.510414,287.700684 117.746086,287.700684 128.051514,287.700684 
	C129.068481,282.009125 130.052383,276.502594 131.216599,270.748993 
	C131.216599,270.748993 131.179214,270.445374 131.746521,270.010803 
	C132.197845,268.669708 132.649170,267.328613 133.278915,265.825317 
	C133.278915,265.825317 133.206329,265.595337 133.745590,265.215576 
	C133.870148,264.804535 133.994690,264.393494 134.293442,263.834503 
	C134.293442,263.834503 134.242126,263.611786 134.763733,263.246490 
	C135.128189,262.494904 135.492645,261.743317 136.115540,260.775238 
	C136.115540,260.775238 136.164017,260.441589 136.683762,260.133698 
	C136.828369,259.768707 136.972961,259.403717 137.499512,258.766266 
	C137.733688,258.367859 137.967880,257.969482 138.732605,257.244781 
	C138.912323,256.876831 139.092041,256.508850 139.159897,256.147614 
	C139.159897,256.147614 139.217697,256.243652 139.771378,255.992416 
	C140.233383,255.350021 140.695389,254.707626 141.660248,253.751190 
	C142.462708,252.887512 143.265167,252.023849 144.673996,250.982498 
	C145.555725,250.101105 146.437454,249.219696 147.172577,248.175339 
	C147.172577,248.175339 147.260895,248.375961 147.829987,248.224976 
	C148.246948,247.835709 148.663925,247.446442 149.009796,247.006302 
	C149.009796,247.006302 149.051987,247.082870 149.695114,246.922943 
	C151.144547,245.954575 152.593964,244.986191 154.721375,243.944946 
	C156.140488,243.231125 157.559586,242.517319 159.737946,241.731689 
	C165.663284,240.457306 171.588608,239.182922 177.561935,237.898224 
	C177.561935,227.639053 177.561935,217.274124 177.561935,206.275192 
	C172.446228,206.866379 167.716370,207.412964 162.322449,207.897842 
	C161.886414,207.977264 161.450394,208.056686 160.229523,208.105453 
	C152.299408,211.321899 144.369278,214.538345 136.180573,217.738922 
	C136.180573,217.738922 136.002106,217.926712 135.407288,217.986923 
	C135.143036,218.271683 134.878769,218.556442 134.119858,218.940659 
	C133.726654,219.245911 133.333450,219.551163 132.337036,219.942154 
	C132.067795,220.232330 131.798553,220.522491 131.198395,220.896973 
	C131.198395,220.896973 130.992188,221.169174 130.539505,221.276291 
	C130.253662,221.430832 130.051270,221.659302 129.983795,222.005600 
	C129.983795,222.005600 129.963089,221.941254 129.339371,222.066071 
	C128.729385,222.639252 128.119385,223.212433 127.051384,223.950394 
	C126.690742,224.273453 126.330093,224.596512 125.411621,225.008133 
	C125.213013,225.313919 125.014404,225.619720 124.416550,226.101746 
	C124.163551,226.270432 123.992439,226.500122 123.268173,226.983078 
	C122.073753,228.273239 120.879333,229.563400 119.298134,231.003342 
	C119.053406,231.167786 118.908340,231.395660 118.287041,231.911133 
	C117.796478,232.560120 117.305923,233.209091 116.902199,233.907730 
	C116.902199,233.907730 116.888527,233.808640 116.359680,233.990417 
	C116.185890,234.307648 116.012100,234.624893 115.415825,235.175934 
	C115.157906,235.401733 115.022881,235.685928 114.522621,236.320312 
	C114.225754,236.792755 113.928886,237.265198 113.866646,237.839554 
	C113.866646,237.839554 113.662399,237.685577 113.139412,237.965897 
	C112.739975,238.632233 112.340538,239.298569 112.004700,239.986862 
	C112.004700,239.986862 111.957352,239.938889 111.443268,240.292053 
	C110.939941,241.181290 110.436623,242.070526 110.003456,242.985107 
	C110.003456,242.985107 109.951218,242.931763 109.430969,243.280884 
	C108.953018,244.186722 108.475060,245.092545 108.000000,246.000000 
	C108.000000,246.000000 107.997726,245.996613 107.570633,246.392593 
	C107.333885,246.910431 107.097137,247.428253 106.948975,247.953094 
M231.647324,202.421326 
	C232.053345,200.521606 232.459366,198.621887 232.911301,196.507370 
	C224.442474,193.796448 216.083954,191.537872 208.070663,188.398148 
	C203.320786,186.537125 201.977264,188.097229 200.988876,192.333084 
	C195.296402,216.728989 199.286926,239.274261 213.879593,259.706879 
	C224.128281,274.057068 237.864105,283.662292 254.902222,289.035522 
	C258.260773,278.693848 261.482880,268.772339 264.704224,258.853149 
	C242.666733,251.613739 226.204742,229.210831 231.647324,202.421326 
M215.231171,134.230789 
	C213.689957,133.296890 212.148743,132.362991 210.292099,131.237946 
	C204.062897,139.783646 197.929886,148.197418 191.808472,156.595245 
	C227.296494,185.052475 282.050110,174.167465 304.629639,138.666962 
	C300.495453,135.665054 296.342957,132.648911 292.189484,129.634140 
	C287.937531,126.547882 283.684601,123.462952 279.461578,120.398827 
	C260.071808,144.568985 233.299957,144.713562 215.231171,134.230789 
M97.545990,135.884674 
	C81.219688,131.205460 65.097351,132.344757 48.906525,136.784592 
	C52.406670,147.427444 55.649357,157.287445 58.918564,167.228073 
	C72.319107,163.176193 84.755341,163.798508 96.776169,169.972672 
	C108.905121,176.202408 116.612907,186.209625 121.053810,198.897461 
	C131.465607,195.477798 141.335052,192.236267 151.394058,188.932480 
	C142.116013,162.209732 124.577919,144.761749 97.545990,135.884674 
M261.313080,222.749893 
	C268.678558,221.969757 273.718445,218.241989 275.765167,211.004944 
	C277.575867,204.602493 275.291718,197.936386 270.197540,194.055496 
	C264.761353,189.914078 257.244019,189.672287 251.502121,193.454269 
	C245.876404,197.159698 243.345642,203.982208 245.006470,210.965256 
	C246.595169,217.645020 252.203125,221.914734 261.313080,222.749893 
M213.477036,113.848267 
	C216.105225,120.374214 220.890060,123.907188 227.959793,124.146599 
	C234.606598,124.371689 239.704529,121.465134 242.610352,115.609200 
	C245.469498,109.847328 245.076157,103.952316 241.185959,98.606438 
	C236.888092,92.700348 229.030899,90.738914 221.999817,93.691895 
	C214.584732,96.806152 211.432220,103.758545 213.477036,113.848267 
M112.932594,97.476509 
	C112.132774,98.731186 111.191078,99.918381 110.556953,101.251854 
	C107.279373,108.144119 108.970238,115.867676 114.710167,120.602478 
	C120.206017,125.135956 128.290634,125.446892 134.119247,121.348961 
	C140.187698,117.082390 142.440155,109.500076 139.753265,102.383514 
	C135.761841,91.811760 123.395042,89.254486 112.932594,97.476509 
M191.119720,260.634613 
	C185.182144,250.181015 177.596695,250.780487 170.305283,253.115402 
	C159.658295,256.524872 157.453613,271.816254 165.926605,279.435638 
	C171.312851,284.279236 179.244400,284.969208 185.309113,281.121765 
	C191.723175,277.052673 193.865387,270.076050 191.119720,260.634613 
M95.104218,190.929657 
	C86.179825,190.612793 80.068344,194.465729 77.671715,201.919830 
	C75.528313,208.586334 78.090126,216.247803 83.837006,219.948792 
	C89.708305,223.729950 95.666809,223.716187 101.670464,220.127350 
	C108.753685,215.893173 109.097542,209.010437 107.962036,202.208435 
	C106.905724,195.880859 102.086243,192.475525 95.104218,190.929657 
z"/>
<path fill="#FF4B12" opacity="1.000000" stroke="none" 
	d="
M231.533661,202.838654 
	C226.204742,229.210831 242.666733,251.613739 264.704224,258.853149 
	C261.482880,268.772339 258.260773,278.693848 254.902222,289.035522 
	C237.864105,283.662292 224.128281,274.057068 213.879593,259.706879 
	C199.286926,239.274261 195.296402,216.728989 200.988876,192.333084 
	C201.977264,188.097229 203.320786,186.537125 208.070663,188.398148 
	C216.083954,191.537872 224.442474,193.796448 232.911301,196.507370 
	C232.459366,198.621887 232.053345,200.521606 231.533661,202.838654 
z"/>
<path fill="#FF4C12" opacity="1.000000" stroke="none" 
	d="
M215.552063,134.438843 
	C233.299957,144.713562 260.071808,144.568985 279.461578,120.398827 
	C283.684601,123.462952 287.937531,126.547882 292.189484,129.634140 
	C296.342957,132.648911 300.495453,135.665054 304.629639,138.666962 
	C282.050110,174.167465 227.296494,185.052475 191.808472,156.595245 
	C197.929886,148.197418 204.062897,139.783646 210.292099,131.237946 
	C212.148743,132.362991 213.689957,133.296890 215.552063,134.438843 
z"/>
<path fill="#FF4C12" opacity="1.000000" stroke="none" 
	d="
M97.936935,135.986267 
	C124.577919,144.761749 142.116013,162.209732 151.394058,188.932480 
	C141.335052,192.236267 131.465607,195.477798 121.053810,198.897461 
	C116.612907,186.209625 108.905121,176.202408 96.776169,169.972672 
	C84.755341,163.798508 72.319107,163.176193 58.918564,167.228073 
	C55.649357,157.287445 52.406670,147.427444 48.906525,136.784592 
	C65.097351,132.344757 81.219688,131.205460 97.936935,135.986267 
z"/>
<path fill="#FF4B12" opacity="1.000000" stroke="none" 
	d="
M182.849197,53.008308 
	C182.849197,53.008308 183.106537,53.264065 183.098511,53.821571 
	C183.717651,55.253555 184.344833,56.128029 184.972015,57.002502 
	C184.972015,57.002502 185.192642,57.213684 185.146698,57.757282 
	C185.997620,59.870983 186.894501,61.441086 187.791382,63.011189 
	C188.180542,63.792664 188.569717,64.574142 188.709473,65.926727 
	C188.401657,67.133102 188.133774,67.836533 188.315125,68.393776 
	C194.857819,88.498344 193.237793,108.043861 184.479660,127.156654 
	C183.749237,128.750702 183.571884,130.598206 183.137573,132.327942 
	C183.137573,132.327942 183.058029,132.733704 182.730652,133.013855 
	C182.187744,133.526398 182.075958,133.801025 182.067947,134.117905 
	C182.067947,134.117905 182.033218,134.047165 181.814362,134.219086 
	C181.454926,134.774231 181.314346,135.157486 181.173767,135.540726 
	C181.173767,135.540726 181.206955,135.815964 180.748840,135.985443 
	C179.928177,136.957336 179.565643,137.759750 179.203094,138.562164 
	C179.000015,138.995468 178.796936,139.428772 177.996750,140.014008 
	C177.009369,140.981339 176.619080,141.796738 176.228775,142.612152 
	C175.700897,143.340515 175.173004,144.068893 174.035400,144.959839 
	C172.672028,146.220963 171.918396,147.319504 171.164749,148.418030 
	C170.733032,148.925842 170.301315,149.433670 169.264038,150.040100 
	C167.796753,151.151855 166.935043,152.164993 166.073334,153.178131 
	C165.417099,153.798203 164.760864,154.418259 163.416290,155.099075 
	C161.363220,155.578491 159.998489,155.997177 158.633759,156.415863 
	C158.633759,156.415863 158.767212,156.284348 158.759552,155.975967 
	C158.148712,155.123062 157.545547,154.578522 156.942383,154.033981 
	C156.942383,154.033981 156.999054,154.002731 156.958984,153.713013 
	C156.500412,153.017654 156.081940,152.612015 155.663452,152.206375 
	C155.663452,152.206375 155.776901,152.186111 155.790619,151.895554 
	C155.196014,151.073761 154.587708,150.542526 153.979385,150.011292 
	C153.979385,150.011292 154.002197,150.002243 153.992828,149.646851 
	C153.252106,148.557571 152.520721,147.823700 151.789337,147.089828 
	C148.235062,142.316040 144.680771,137.542267 141.152359,132.803223 
	C164.935425,109.831001 167.526306,93.767761 152.238998,63.475136 
	C160.201782,57.689453 168.232559,51.854370 176.749237,46.156921 
	C177.818176,46.532494 178.401230,46.770428 178.984283,47.008366 
	C178.984283,47.008366 179.001221,47.000759 179.002197,47.359268 
	C179.672546,48.478355 180.341934,49.238934 181.011322,49.999512 
	C181.011322,49.999512 181.226517,50.138237 181.191406,50.626305 
	C181.720612,51.745682 182.284897,52.376995 182.849197,53.008308 
z"/>
<path fill="#FF4B12" opacity="1.000000" stroke="none" 
	d="
M134.242126,263.611786 
	C134.242126,263.611786 134.293442,263.834503 133.951218,264.109436 
	C133.474762,264.787994 133.340546,265.191681 133.206329,265.595337 
	C133.206329,265.595337 133.278915,265.825317 132.856812,266.082764 
	C132.016205,267.708588 131.597717,269.076996 131.179214,270.445374 
	C131.179214,270.445374 131.216599,270.748993 130.804474,271.053284 
	C129.557571,274.477966 128.617004,277.574799 127.917221,280.725159 
	C127.190971,283.994629 126.428246,286.481995 121.970413,286.135132 
	C115.846954,285.658630 109.658600,286.028015 103.498108,286.012238 
	C97.953453,285.998016 97.076683,285.101196 98.118240,279.548889 
	C99.276474,273.374603 100.629562,267.227692 102.171143,261.138031 
	C103.096245,257.483612 104.543846,253.961441 105.756630,250.379822 
	C105.756630,250.379822 105.692909,250.169464 106.038162,249.914749 
	C106.556313,249.065887 106.729210,248.471725 106.902115,247.877579 
	C106.902115,247.877579 106.948975,247.953094 107.171097,247.802765 
	C107.594734,247.100494 107.796234,246.548553 107.997726,245.996613 
	C107.997726,245.996613 108.000000,246.000000 108.341599,245.933945 
	C109.105865,244.889175 109.528542,243.910477 109.951218,242.931763 
	C109.951218,242.931763 110.003456,242.985107 110.317673,242.923828 
	C111.073708,241.888000 111.515526,240.913437 111.957352,239.938889 
	C111.957352,239.938889 112.004700,239.986862 112.314224,239.926758 
	C112.969955,239.139633 113.316177,238.412613 113.662399,237.685577 
	C113.662399,237.685577 113.866646,237.839554 114.054840,237.730164 
	C114.498947,237.090012 114.754845,236.559250 115.010757,236.028503 
	C115.022881,235.685928 115.157906,235.401733 115.875244,234.947678 
	C116.519287,234.415817 116.703903,234.112228 116.888519,233.808640 
	C116.888527,233.808640 116.902199,233.907730 117.213577,233.868500 
	C117.970947,233.115173 118.416939,232.401077 118.862938,231.686966 
	C118.908340,231.395660 119.053406,231.167786 119.860275,230.924927 
	C121.582672,229.494598 122.742935,228.142700 123.903198,226.790802 
	C123.992439,226.500122 124.163551,226.270432 124.864738,225.919403 
	C125.531769,225.464554 125.750610,225.192062 125.969452,224.919556 
	C126.330093,224.596512 126.690742,224.273453 127.641556,223.885101 
	C128.808853,223.193619 129.385971,222.567429 129.963089,221.941254 
	C129.963089,221.941254 129.983795,222.005600 130.184128,221.927658 
	C130.676804,221.703033 130.879379,221.476181 130.992188,221.169174 
	C130.992188,221.169174 131.198395,220.896973 131.659943,220.800659 
	C132.394424,220.421692 132.667328,220.139053 132.940247,219.856415 
	C133.333450,219.551163 133.726654,219.245911 134.653198,218.836090 
	C135.458405,218.463257 135.730255,218.194992 136.002106,217.926712 
	C136.002106,217.926712 136.180573,217.738922 136.709686,217.781708 
	C144.171326,215.256638 151.116623,212.722198 158.023209,210.086380 
	C159.110046,209.671600 160.021698,208.797714 161.014359,208.136108 
	C161.450394,208.056686 161.886414,207.977264 162.937317,208.201645 
	C166.137802,208.334244 168.732498,208.247635 171.306686,207.970490 
	C174.539093,207.622452 176.258728,208.450073 176.098953,212.216797 
	C175.846039,218.179550 176.033691,224.160934 176.032455,230.134445 
	C176.030930,237.431854 175.929733,237.188232 168.665405,238.172180 
	C165.333679,238.623459 162.201416,240.547409 158.978699,241.803528 
	C157.559586,242.517319 156.140488,243.231125 154.011108,243.975159 
	C151.884552,245.031189 150.468277,246.057037 149.051987,247.082870 
	C149.051987,247.082870 149.009796,247.006302 148.725204,247.047516 
	C148.047379,247.517807 147.654144,247.946884 147.260895,248.375977 
	C147.260895,248.375961 147.172577,248.175339 146.879349,248.192902 
	C145.746613,249.193710 144.907104,250.176941 144.067627,251.160187 
	C143.265167,252.023849 142.462708,252.887512 141.064301,253.946945 
	C140.051483,254.843018 139.634583,255.543335 139.217697,256.243652 
	C139.217697,256.243652 139.159897,256.147614 138.923141,256.281342 
	C138.524948,256.800415 138.363510,257.185730 138.202072,257.571075 
	C137.967880,257.969482 137.733688,258.367859 137.056656,259.063629 
	C136.463882,259.721191 136.313950,260.081390 136.164017,260.441589 
	C136.164017,260.441589 136.115540,260.775238 135.642502,260.971802 
	C134.860352,261.982849 134.551239,262.797302 134.242126,263.611786 
z"/>
<path fill="#FF4C13" opacity="1.000000" stroke="none" 
	d="
M260.905151,222.754623 
	C252.203125,221.914734 246.595169,217.645020 245.006470,210.965256 
	C243.345642,203.982208 245.876404,197.159698 251.502121,193.454269 
	C257.244019,189.672287 264.761353,189.914078 270.197540,194.055496 
	C275.291718,197.936386 277.575867,204.602493 275.765167,211.004944 
	C273.718445,218.241989 268.678558,221.969757 260.905151,222.754623 
z"/>
<path fill="#FF4C12" opacity="1.000000" stroke="none" 
	d="
M213.327057,113.498734 
	C211.432220,103.758545 214.584732,96.806152 221.999817,93.691895 
	C229.030899,90.738914 236.888092,92.700348 241.185959,98.606438 
	C245.076157,103.952316 245.469498,109.847328 242.610352,115.609200 
	C239.704529,121.465134 234.606598,124.371689 227.959793,124.146599 
	C220.890060,123.907188 216.105225,120.374214 213.327057,113.498734 
z"/>
<path fill="#FF4C12" opacity="1.000000" stroke="none" 
	d="
M113.188629,97.209892 
	C123.395042,89.254486 135.761841,91.811760 139.753265,102.383514 
	C142.440155,109.500076 140.187698,117.082390 134.119247,121.348961 
	C128.290634,125.446892 120.206017,125.135956 114.710167,120.602478 
	C108.970238,115.867676 107.279373,108.144119 110.556953,101.251854 
	C111.191078,99.918381 112.132774,98.731186 113.188629,97.209892 
z"/>
<path fill="#FF4C12" opacity="1.000000" stroke="none" 
	d="
M191.249054,260.995026 
	C193.865387,270.076050 191.723175,277.052673 185.309113,281.121765 
	C179.244400,284.969208 171.312851,284.279236 165.926605,279.435638 
	C157.453613,271.816254 159.658295,256.524872 170.305283,253.115402 
	C177.596695,250.780487 185.182144,250.181015 191.249054,260.995026 
z"/>
<path fill="#FF4C13" opacity="1.000000" stroke="none" 
	d="
M95.522507,190.986694 
	C102.086243,192.475525 106.905724,195.880859 107.962036,202.208435 
	C109.097542,209.010437 108.753685,215.893173 101.670464,220.127350 
	C95.666809,223.716187 89.708305,223.729950 83.837006,219.948792 
	C78.090126,216.247803 75.528313,208.586334 77.671715,201.919830 
	C80.068344,194.465729 86.179825,190.612793 95.522507,190.986694 
z"/>
<path fill="#FE561E" opacity="1.000000" stroke="none" 
	d="
M105.470070,250.604523 
	C104.543846,253.961441 103.096245,257.483612 102.171143,261.138031 
	C100.629562,267.227692 99.276474,273.374603 98.118240,279.548889 
	C97.076683,285.101196 97.953453,285.998016 103.498108,286.012238 
	C109.658600,286.028015 115.846954,285.658630 121.970413,286.135132 
	C126.428246,286.481995 127.190971,283.994629 127.917221,280.725159 
	C128.617004,277.574799 129.557571,274.477966 130.714325,271.176849 
	C130.052383,276.502594 129.068481,282.009125 128.051514,287.700684 
	C117.746086,287.700684 107.510414,287.700684 96.797844,287.700684 
	C96.410278,274.595703 99.229958,262.375458 105.470070,250.604523 
z"/>
<path fill="#FE511D" opacity="1.000000" stroke="none" 
	d="
M183.436783,132.136505 
	C183.571884,130.598206 183.749237,128.750702 184.479660,127.156654 
	C193.237793,108.043861 194.857819,88.498344 188.315125,68.393776 
	C188.133774,67.836533 188.401657,67.133102 188.712280,66.255554 
	C197.230499,88.784264 194.783905,110.705719 183.436783,132.136505 
z"/>
<path fill="#FE5927" opacity="1.000000" stroke="none" 
	d="
M159.358322,241.767609 
	C162.201416,240.547409 165.333679,238.623459 168.665405,238.172180 
	C175.929733,237.188232 176.030930,237.431854 176.032455,230.134445 
	C176.033691,224.160934 175.846039,218.179550 176.098953,212.216797 
	C176.258728,208.450073 174.539093,207.622452 171.306686,207.970490 
	C168.732498,208.247635 166.137802,208.334244 163.269348,208.232513 
	C167.716370,207.412964 172.446228,206.866379 177.561935,206.275192 
	C177.561935,217.274124 177.561935,227.639053 177.561935,237.898224 
	C171.588608,239.182922 165.663284,240.457306 159.358322,241.767609 
z"/>
<path fill="#FE5927" opacity="1.000000" stroke="none" 
	d="
M160.621948,208.120789 
	C160.021698,208.797714 159.110046,209.671600 158.023209,210.086380 
	C151.116623,212.722198 144.171326,215.256638 136.838959,217.789642 
	C144.369278,214.538345 152.299408,211.321899 160.621948,208.120789 
z"/>
<path fill="#FE5927" opacity="1.000000" stroke="none" 
	d="
M123.585678,226.886932 
	C122.742935,228.142700 121.582672,229.494598 120.053665,230.850037 
	C120.879333,229.563400 122.073753,228.273239 123.585678,226.886932 
z"/>
<path fill="#FE561E" opacity="1.000000" stroke="none" 
	d="
M149.373550,247.002899 
	C150.468277,246.057037 151.884552,245.031189 153.672119,244.011581 
	C152.593964,244.986191 151.144547,245.954575 149.373550,247.002899 
z"/>
<path fill="#FE511D" opacity="1.000000" stroke="none" 
	d="
M187.741318,62.674480 
	C186.894501,61.441086 185.997620,59.870983 185.138092,57.909744 
	C186.014053,59.124996 186.852661,60.731384 187.741318,62.674480 
z"/>
<path fill="#FE511D" opacity="1.000000" stroke="none" 
	d="
M158.749390,156.722534 
	C159.998489,155.997177 161.363220,155.578491 163.156464,155.186127 
	C162.011673,155.818024 160.438339,156.423615 158.749390,156.722534 
z"/>
<path fill="#FE511D" opacity="1.000000" stroke="none" 
	d="
M171.455139,148.261688 
	C171.918396,147.319504 172.672028,146.220963 173.799362,145.096497 
	C173.363892,146.082153 172.554718,147.093750 171.455139,148.261688 
z"/>
<path fill="#FE561E" opacity="1.000000" stroke="none" 
	d="
M144.370804,251.071335 
	C144.907104,250.176941 145.746613,249.193710 146.952652,248.274384 
	C146.437454,249.219696 145.555725,250.101105 144.370804,251.071335 
z"/>
<path fill="#FE511D" opacity="1.000000" stroke="none" 
	d="
M166.387177,153.083374 
	C166.935043,152.164993 167.796753,151.151855 169.036621,150.150406 
	C168.510193,151.104279 167.605606,152.046463 166.387177,153.083374 
z"/>
<path fill="#FE561E" opacity="1.000000" stroke="none" 
	d="
M131.462860,270.228088 
	C131.597717,269.076996 132.016205,267.708588 132.767593,266.163879 
	C132.649170,267.328613 132.197845,268.669708 131.462860,270.228088 
z"/>
<path fill="#FE511D" opacity="1.000000" stroke="none" 
	d="
M184.938965,56.673538 
	C184.344833,56.128029 183.717651,55.253555 183.121155,54.001564 
	C183.736542,54.530888 184.321243,55.437729 184.938965,56.673538 
z"/>
<path fill="#FE511D" opacity="1.000000" stroke="none" 
	d="
M180.958267,49.694271 
	C180.341934,49.238934 179.672546,48.478355 178.996643,47.367500 
	C179.628479,47.807827 180.266846,48.598427 180.958267,49.694271 
z"/>
<path fill="#FE511D" opacity="1.000000" stroke="none" 
	d="
M151.895294,147.381866 
	C152.520721,147.823700 153.252106,148.557571 153.984695,149.657074 
	C153.324356,149.239746 152.662796,148.456833 151.895294,147.381866 
z"/>
<path fill="#FE561E" opacity="1.000000" stroke="none" 
	d="
M109.691093,243.106323 
	C109.528542,243.910477 109.105865,244.889175 108.340149,245.933136 
	C108.475060,245.092545 108.953018,244.186722 109.691093,243.106323 
z"/>
<path fill="#FE561E" opacity="1.000000" stroke="none" 
	d="
M111.700310,240.115479 
	C111.515526,240.913437 111.073708,241.888000 110.282593,242.911163 
	C110.436623,242.070526 110.939941,241.181290 111.700310,240.115479 
z"/>
<path fill="#FE511D" opacity="1.000000" stroke="none" 
	d="
M179.473328,138.381439 
	C179.565643,137.759750 179.928177,136.957336 180.645416,136.077759 
	C180.581268,136.733978 180.162399,137.467331 179.473328,138.381439 
z"/>
<path fill="#FE511D" opacity="1.000000" stroke="none" 
	d="
M178.926712,46.728340 
	C178.401230,46.770428 177.818176,46.532494 177.066574,46.018188 
	C177.555069,45.977310 178.212097,46.212811 178.926712,46.728340 
z"/>
<path fill="#FE561E" opacity="1.000000" stroke="none" 
	d="
M134.502930,263.429138 
	C134.551239,262.797302 134.860352,261.982849 135.513290,261.080048 
	C135.492645,261.743317 135.128189,262.494904 134.502930,263.429138 
z"/>
<path fill="#FE561E" opacity="1.000000" stroke="none" 
	d="
M139.494537,256.118042 
	C139.634583,255.543335 140.051483,254.843018 140.812881,254.103973 
	C140.695389,254.707626 140.233383,255.350021 139.494537,256.118042 
z"/>
<path fill="#FE511D" opacity="1.000000" stroke="none" 
	d="
M176.505371,142.435104 
	C176.619080,141.796738 177.009369,140.981339 177.772827,140.111832 
	C177.691299,140.791183 177.236618,141.524612 176.505371,142.435104 
z"/>
<path fill="#FE561E" opacity="1.000000" stroke="none" 
	d="
M113.400909,237.825745 
	C113.316177,238.412613 112.969955,239.139633 112.282425,239.915787 
	C112.340538,239.298569 112.739975,238.632233 113.400909,237.825745 
z"/>
<path fill="#FE561E" opacity="1.000000" stroke="none" 
	d="
M118.574989,231.799042 
	C118.416939,232.401077 117.970947,233.115173 117.170158,233.843689 
	C117.305923,233.209091 117.796478,232.560120 118.574989,231.799042 
z"/>
<path fill="#FE511D" opacity="1.000000" stroke="none" 
	d="
M157.020477,154.317993 
	C157.545547,154.578522 158.148712,155.123062 158.673309,156.012543 
	C158.095993,155.772324 157.597275,155.187164 157.020477,154.317993 
z"/>
<path fill="#FE511D" opacity="1.000000" stroke="none" 
	d="
M182.786209,52.698456 
	C182.284897,52.376995 181.720612,51.745682 181.188217,50.754280 
	C181.721161,51.058994 182.222198,51.723801 182.786209,52.698456 
z"/>
<path fill="#FE5927" opacity="1.000000" stroke="none" 
	d="
M129.651230,222.003662 
	C129.385971,222.567429 128.808853,223.193619 127.870560,223.802704 
	C128.119385,223.212433 128.729385,222.639252 129.651230,222.003662 
z"/>
<path fill="#FE511D" opacity="1.000000" stroke="none" 
	d="
M154.038391,150.304413 
	C154.587708,150.542526 155.196014,151.073761 155.764297,151.946808 
	C155.181976,151.724930 154.639679,151.161240 154.038391,150.304413 
z"/>
<path fill="#FE561E" opacity="1.000000" stroke="none" 
	d="
M106.641220,248.057495 
	C106.729210,248.471725 106.556313,249.065887 106.119156,249.840469 
	C106.030037,249.426407 106.205185,248.831924 106.641220,248.057495 
z"/>
<path fill="#FE511D" opacity="1.000000" stroke="none" 
	d="
M155.733276,152.496521 
	C156.081940,152.612015 156.500412,153.017654 156.941116,153.740021 
	C156.576584,153.633377 156.189850,153.210022 155.733276,152.496521 
z"/>
<path fill="#FE561E" opacity="1.000000" stroke="none" 
	d="
M147.545441,248.300476 
	C147.654144,247.946884 148.047379,247.517807 148.760757,247.072952 
	C148.663925,247.446442 148.246948,247.835709 147.545441,248.300476 
z"/>
<path fill="#FE561E" opacity="1.000000" stroke="none" 
	d="
M107.784180,246.194611 
	C107.796234,246.548553 107.594734,247.100494 107.126816,247.799255 
	C107.097137,247.428253 107.333885,246.910431 107.784180,246.194611 
z"/>
<path fill="#FE561E" opacity="1.000000" stroke="none" 
	d="
M114.766685,236.174408 
	C114.754845,236.559250 114.498947,237.090012 113.937531,237.679214 
	C113.928886,237.265198 114.225754,236.792755 114.766685,236.174408 
z"/>
<path fill="#FE5927" opacity="1.000000" stroke="none" 
	d="
M132.638641,219.899292 
	C132.667328,220.139053 132.394424,220.421692 131.825409,220.758499 
	C131.798553,220.522491 132.067795,220.232330 132.638641,219.899292 
z"/>
<path fill="#FE5927" opacity="1.000000" stroke="none" 
	d="
M130.765839,221.222733 
	C130.879379,221.476181 130.676804,221.703033 130.158386,221.905731 
	C130.051270,221.659302 130.253662,221.430832 130.765839,221.222733 
z"/>
<path fill="#FE5927" opacity="1.000000" stroke="none" 
	d="
M135.704697,217.956818 
	C135.730255,218.194992 135.458405,218.463257 134.900543,218.786377 
	C134.878769,218.556442 135.143036,218.271683 135.704697,217.956818 
z"/>
<path fill="#FE5927" opacity="1.000000" stroke="none" 
	d="
M125.690536,224.963837 
	C125.750610,225.192062 125.531769,225.464554 125.064362,225.831268 
	C125.014404,225.619720 125.213013,225.313919 125.690536,224.963837 
z"/>
<path fill="#FE561E" opacity="1.000000" stroke="none" 
	d="
M138.467346,257.407928 
	C138.363510,257.185730 138.524948,256.800415 138.979080,256.277985 
	C139.092041,256.508850 138.912323,256.876831 138.467346,257.407928 
z"/>
<path fill="#FE561E" opacity="1.000000" stroke="none" 
	d="
M136.423889,260.287659 
	C136.313950,260.081390 136.463882,259.721191 136.865677,259.199860 
	C136.972961,259.403717 136.828369,259.768707 136.423889,260.287659 
z"/>
<path fill="#FE511D" opacity="1.000000" stroke="none" 
	d="
M182.252945,133.985291 
	C182.075958,133.801025 182.187744,133.526398 182.586792,133.162323 
	C182.783905,133.354935 182.673126,133.628952 182.252945,133.985291 
z"/>
<path fill="#FE561E" opacity="1.000000" stroke="none" 
	d="
M133.475952,265.405457 
	C133.340546,265.191681 133.474762,264.787994 133.864120,264.183411 
	C133.994690,264.393494 133.870148,264.804535 133.475952,265.405457 
z"/>
<path fill="#FE511D" opacity="1.000000" stroke="none" 
	d="
M181.436737,135.367920 
	C181.314346,135.157486 181.454926,134.774231 181.853577,134.215286 
	C181.974335,134.424759 181.837021,134.809952 181.436737,135.367920 
z"/>
<path fill="#FE561E" opacity="1.000000" stroke="none" 
	d="
M116.624100,233.899536 
	C116.703903,234.112228 116.519287,234.415817 116.086487,234.830780 
	C116.012100,234.624893 116.185890,234.307648 116.624100,233.899536 
z"/>
</svg>