<svg height="2500" viewBox="0 0 60 60" width="2500" xmlns="http://www.w3.org/2000/svg"><path d="m0 0h60v60h-60z" fill="#2eb565"/><path d="m3.63 16.67h9.05c4.43.29 7.59 4.42 6.67 8.79-.17.82-.5 1.59-.92 2.3 2.42 2.35 2.85 6.15 1.06 9.01a7.336 7.336 0 0 1 -5.62 3.41h-10.24zm5.56 8.99h3.22c.85 0 1.59-.96 1.57-1.77s-.75-1.7-1.57-1.7h-3.22zm0 9h4.33c.76 0 1.48-.88 1.53-1.6.07-.89-.7-1.87-1.63-1.87h-4.23zm21.09-11.31c6.74-.36 11.25 6.94 7.86 12.81s-11.67 5.67-14.87-.1c-3.07-5.53.72-12.37 7.01-12.71zm.1 5.79c-1 .1-1.93.89-2.25 1.83-.77 2.26 1.43 4.38 3.65 3.48 2.91-1.18 1.89-5.64-1.4-5.31zm23.79-9.71v4.21h2.75l.05.05v5.46l-.05.05h-2.71v4.9c0 .11.08.43.12.56.38 1.38 1.47 1.26 2.64 1.01v4.06c-1.39.8-3.16.88-4.68.44-2.23-.64-3.5-2.46-3.64-4.75v-14.8l5.53-1.18zm-7.68-2.76v23.51h-5.53v-22.36zm-15.84 25.74c1.99-.06 3.39 1.95 2.66 3.81-.77 1.95-3.4 2.36-4.72.73-1.44-1.77-.22-4.47 2.06-4.53z" fill="#fff"/></svg>