<svg viewBox="0 0 131 39" fill="none" xmlns="http://www.w3.org/2000/svg" xml:space="preserve">
<g clip-path="url(#clip0)">
<path d="M81.1117 11.7172L77.8545 14.1619L77.7327 13.9805C76.2119 11.7526 73.728 10.3513 70.7427 10.3513C65.6296 10.3513 61.8734 14.0724 61.8734 19.4986C61.8734 24.9248 65.6273 28.6459 70.7427 28.6459C73.7116 28.6459 76.1603 27.2988 77.7163 25.0332L77.8545 24.8353L81.1257 27.2894L81.0062 27.459C78.8785 30.6031 75.1246 32.546 70.7427 32.546C63.0544 32.546 57.6367 27.0115 57.6367 19.4986C57.6367 11.9857 63.0544 6.45117 70.7427 6.45117C75.1949 6.45117 79.1457 8.44597 81.1117 11.7172Z" fill="white"/>
<path d="M86.6231 32.078H82.8691V6.20215H86.6231V32.078Z" fill="white"/>
<path d="M108.544 32.0773H104.806V30.0119C103.625 31.538 101.856 32.5272 99.4239 32.5272C94.632 32.5272 90.8594 28.7355 90.8594 23.4718C90.8594 18.2058 94.632 14.4165 99.4239 14.4165C101.856 14.4165 103.625 15.4221 104.806 16.9506V14.8663H108.544V32.0773ZM94.7046 23.4695C94.7046 26.4887 96.6542 28.9851 99.8715 28.9851C102.965 28.9851 105.038 26.6135 105.038 23.4695C105.038 20.3254 102.965 17.9539 99.8715 17.9539C96.6542 17.9539 94.7046 20.4502 94.7046 23.4695Z" fill="white"/>
<path d="M124.333 14.8997L123.438 18.6184C122.651 18.2039 121.507 17.9896 120.596 17.9896C118.218 17.9896 116.519 19.6782 116.519 22.6079V32.0777H112.781V14.8644H116.481V16.805C117.608 15.1705 119.359 14.4146 121.451 14.4146C122.599 14.4146 123.473 14.5582 124.333 14.8997Z" fill="white"/>
<path d="M131 8.9148C131 10.4056 129.838 11.5384 128.355 11.5384C126.871 11.5384 125.744 10.4056 125.744 8.9148C125.744 7.424 126.871 6.25586 128.355 6.25586C129.838 6.25586 131 7.424 131 8.9148ZM130.248 32.0775H126.494V14.8639H130.248V32.0775Z" fill="white"/>
<path d="M44.5468 7.40039L30.5879 11.1921C31.1526 13.811 31.4502 16.5877 31.4502 19.501C31.4502 22.4143 31.1503 25.1887 30.5879 27.8099L44.5468 31.6017C45.4396 27.8193 45.9082 23.6743 45.9082 19.5034C45.9082 15.3325 45.4396 11.1827 44.5468 7.40039Z" fill="#00D7B8"/>
<path d="M9.20182 3.48193L0 19.4988L14.5631 8.57125C13.1665 6.47759 11.3482 4.75367 9.20182 3.48193Z" fill="#5F3AD7"/>
<path d="M9.20182 35.5187L0 19.4995L14.5631 30.427C13.1665 32.5231 11.3482 34.247 9.20182 35.5187Z" fill="#5F3AD7"/>
<path d="M25.9895 0L0 19.5006L30.5893 11.1917C29.6942 7.03482 28.1265 3.2713 25.9895 0Z" fill="#0280FF"/>
<path d="M25.9895 38.9996L0 19.499L30.5893 27.808C29.6942 31.9672 28.1265 35.7307 25.9895 38.9996Z" fill="#0280FF"/>
<path d="M31.454 19.4989C31.454 16.5856 31.1541 13.8112 30.5917 11.1899L0 19.4989L30.5893 27.8079C31.1564 25.1842 31.454 22.4169 31.454 19.4989Z" fill="white"/>
</g>
<defs>
<clipPath id="clip0">
<rect width="131" height="39" fill="white"/>
</clipPath>
</defs>
</svg>
