<svg width="130" height="28" viewBox="0 0 130 28" fill="none" xmlns="http://www.w3.org/2000/svg">
<path d="M44.7886 1.22446C49.3905 1.22447 49.5628 5.57103 49.7284 9.77444C49.7964 11.501 49.6265 16.6321 52.4197 16.6321C54.0675 16.6321 54.3204 14.5958 54.6139 12.2375C54.9236 9.74975 55.2678 6.91362 57.3077 5.96692C57.9655 5.66161 58.6336 5.52908 59.2712 5.52908C61.1004 5.52908 62.4294 6.73961 63.2132 7.7639C65.0627 10.1808 66.0407 13.9119 65.4592 16.6062C64.2127 22.3821 61.1635 24.8955 59.4452 25.8185C57.1811 27.0347 53.9269 27.6932 50.8039 27.6932C50.8035 27.6931 50.8044 27.692 50.8039 27.692C45.2524 27.692 41.5853 25.645 41.023 22.2108C40.6799 20.1151 39.97 18.2932 38.5143 16.7098C37.3509 15.4444 36.9817 13.2973 37.7312 11.7034C37.9452 11.2482 38.2625 10.8116 38.5525 10.3813C39.0888 9.5856 39.6283 8.76095 39.8784 7.78498C40.0304 7.19185 40.1409 6.54783 40.1806 5.74854C40.3155 3.03657 42.1547 1.22446 44.7886 1.22446Z" fill="#1B1A18"/>
<path d="M68.2627 0.880216C70.5457 0.880216 72.8115 1.86081 74.0351 3.37906C74.9218 4.47932 75.2416 5.81966 74.9169 7.24705C74.7654 7.91298 74.4826 8.59508 74.204 9.29939C73.8141 10.2848 73.4347 11.307 73.2826 12.3484C73.167 13.1404 73.2455 13.7238 73.5935 14.1381C73.9646 14.5798 74.5777 14.7856 75.5237 14.7856C76.2576 14.7856 77.1037 14.66 77.9239 14.5389C78.7331 14.4195 79.4978 14.3057 80.1466 14.3057C81.4946 14.3058 82.9709 14.7905 83.9725 15.7069C85.2215 16.8497 85.6393 18.6923 85.3379 21.2462C84.7307 26.3932 79.8129 27.4255 75.4658 27.4255C73.1741 27.4255 71.1191 27.0533 69.522 26.3488C67.6409 25.519 66.396 24.2392 65.7996 22.5573C65.3131 21.1853 65.6733 20.1054 66.1105 18.7276C67.0979 15.6157 66.9379 12.27 65.6627 9.5745C64.7399 7.62411 62.8775 4.94933 64.1161 2.74513C64.7991 1.52957 66.3645 0.880226 68.2627 0.880216Z" fill="#1B1A18"/>
<path d="M103.262 2.19878C105.188 -0.66179 108.245 0.220364 110.722 1.59195C112.484 2.56744 114.249 3.23482 116.251 3.50132C117.393 3.65335 118.676 3.66935 120.035 3.67765C123.521 3.69895 127.144 3.70432 129.052 6.26406C129.922 7.4319 130.174 9.0082 129.79 10.4428C129.175 12.7474 127.075 13.7261 124.869 13.7261C123.886 13.7261 122.336 13.5286 121.844 14.5464C121.358 15.5499 122.251 16.4645 122.844 17.2044C123.291 17.7623 123.697 18.2551 124.136 18.9299C125.375 20.8341 125.612 22.5315 124.827 23.9807C123.732 26.0036 120.593 27.3614 117.016 27.3614C115.459 27.3614 113.974 27.1148 112.739 26.598C109.689 25.3214 108.3 23.0271 107.969 21.3363C107.504 18.9638 109.371 17.1299 110.5 15.2618C111.136 14.2093 111.207 13.3518 110.732 12.7123C110.152 11.9328 109.147 11.4418 108.327 10.9559C105.591 9.33551 100.889 5.72531 103.262 2.19878Z" fill="#1B1A18"/>
<path d="M31.7158 0.663166C32.9628 0.663166 34.2385 0.944413 35.5012 1.51173C37.6411 2.47325 38.9857 4.30216 38.9672 6.27009C38.9506 8.02885 37.8279 9.50964 36.5 10.5716C34.9876 11.7811 34.2358 13.0201 34.1962 14.4575C34.1396 16.5118 36.1975 17.3051 37.6892 18.1664C38.7173 18.76 39.4201 19.853 39.6886 21.0981C40.4069 24.4302 37.7278 26.292 35.21 26.9223C34.1457 27.1888 33.0874 27.359 32.0464 27.359C28.419 27.359 25.0819 25.6022 22.8896 22.5388C20.5874 19.3218 19.9958 15.1594 21.2603 11.3876C21.6595 10.197 22.9824 8.70766 23.6087 7.53938C23.9185 6.96153 24.1782 6.3586 24.4387 5.75709C25.8151 2.57945 28.504 0.663175 31.7158 0.663166Z" fill="#1B1A18"/>
<path d="M93.6044 0.520072C98.4948 0.520076 100.74 2.23944 101.758 5.63869C102.478 8.0466 104.873 9.40801 106.169 11.3493C106.588 11.9773 106.677 12.7382 106.449 13.5325C106.121 14.6734 105.156 15.7565 103.996 16.3003C102.914 16.8074 101.691 16.9282 100.507 17.0415C100.028 17.0873 99.5396 17.1268 99.0671 17.2056C98.0311 17.3784 96.5757 17.6014 95.8332 18.6227C95.2114 19.4779 95.8664 20.6739 96.3697 21.5952C96.5152 21.8616 96.6442 22.1156 96.7446 22.3291C97.2499 23.4034 97.2525 24.3592 96.731 25.1869C95.9229 26.4695 93.856 27.3317 91.589 27.3318C90.3618 27.3318 89.1975 27.0714 88.3118 26.5954C87.3363 26.0711 86.7018 25.2937 86.4704 24.3457C86.3144 23.7066 86.4151 23.0254 86.4519 22.376C86.5082 21.3793 86.5685 20.3507 86.5333 19.4232C86.4846 18.1392 86.2644 17.1236 85.8203 16.2349C85.4219 15.4375 84.8622 14.6843 84.328 13.9543C83.7484 13.1623 83.1447 12.3454 82.7307 11.4689C81.7349 9.36055 81.7921 6.967 82.875 4.906C84.7739 1.29201 89.6483 0.520072 93.6044 0.520072Z" fill="#1B1A18"/>
<path d="M15.372 0.46587C17.1567 0.465871 21.5011 0.741959 22.9537 3.49385C23.5588 4.64024 23.2803 5.77804 22.9722 6.5034C22.4206 7.80205 21.2557 8.83509 19.9627 9.29204C18.3559 9.85986 16.5795 9.79126 14.9465 10.2627C14.267 10.4589 13.3517 10.8471 13.5231 11.7392C13.6414 12.3547 14.3157 12.8563 14.8552 13.1021C17.9752 14.5238 19.7241 16.8507 20.0354 19.8155C20.1682 21.0798 19.8219 22.2562 18.8847 23.3319C16.8741 25.6394 12.3736 27.2504 7.93955 27.2504C4.0938 27.2504 1.30271 26.0871 0.305949 24.0448C-0.309355 22.784 0.0406476 21.1747 1.02262 19.9463C2.05776 18.6514 3.95546 18.2359 5.6651 17.9185C7.47681 17.5822 9.27345 17.2575 9.59356 15.8304C9.89856 14.4705 8.7398 13.6783 7.78779 12.9922C7.39789 12.7113 7.03172 12.4437 6.76288 12.1561C5.26179 10.5504 4.77981 8.54965 5.41228 6.51568C6.25373 3.80971 8.95026 1.45718 11.9727 0.800117C12.9785 0.581454 14.1867 0.46587 15.372 0.46587Z" fill="#1B1A18"/>
</svg>
