<svg width="500" height="500" viewBox="0 0 500 500" xmlns="http://www.w3.org/2000/svg" fill="#15D5C5">
<path d="M250 500C388.071 500 500 388.071 500 250C500 111.929 388.071 0 250 0C111.929 0 0 111.929 0 250C0 388.071 111.929 500 250 500Z" fill="#FFF1DA"/>
<path d="M353.125 330.898H404.256V380.076H353.125V330.898Z" fill="#5938B8"/>
<path d="M91.5547 275.718C91.5547 199.629 140.525 165.817 194.222 165.817C243.229 165.817 263.895 196.701 263.895 196.701V105.477H316.974V330.291C316.974 348.744 317.615 365.397 318.913 380.246H263.912V355.013C263.912 355.013 242.851 385.619 194.239 385.619C142.414 385.619 91.5547 356.124 91.5547 275.718ZM207.779 345.223C245.372 345.223 269.676 316.844 269.676 275.718C269.676 233.152 245.355 206.212 207.779 206.212C170.203 206.212 146.78 231.823 146.78 275.718C146.78 319.613 171.19 345.223 207.779 345.223Z" fill="#5938B8"/>
</svg>
