<svg width="2394" height="655" viewBox="0 0 2394 655" fill="none" xmlns="http://www.w3.org/2000/svg">
<rect width="2394" height="655" fill="white"/>
<g clip-path="url(#clip0_27141_4536)">
<path d="M285.496 327.253H381.529V397.512C358.457 414.663 326.288 425.938 290.85 425.938C214.147 425.938 163.17 369.086 163.17 291.815V290.725C163.17 218.855 215.758 158.213 284.928 158.213C332.684 158.213 361.11 173.752 390.057 198.435L431.89 148.548C393.278 115.811 353.056 97.5706 287.581 97.5706C174.446 97.6653 94 186.733 94 291.862V292.952C94 402.392 171.224 486.059 288.718 486.059C355.235 486.059 408.344 459.244 445.345 427.596V269.88H285.496V327.3V327.253Z" fill="#153D5E"/>
<path d="M594.581 192.607C548.437 192.607 517.879 202.272 486.752 216.201L504.471 268.22C530.196 257.513 553.837 250.501 585.485 250.501C630.54 250.501 655.224 271.963 655.224 311.096V316.45C633.241 309.485 611.258 304.653 576.91 304.653C510.914 304.653 462.116 334.69 462.116 397.464V398.553C462.116 455.405 509.303 486.011 562.981 486.011C605.904 486.011 635.42 468.292 654.702 445.219V480.089H719.087V312.186C719.087 236.525 678.296 192.56 594.629 192.56L594.581 192.607ZM656.266 377.66C656.266 413.051 624.097 437.213 581.174 437.213C550.616 437.213 526.454 422.194 526.454 395.379V394.289C526.454 366.953 550.616 350.324 591.36 350.324C616.564 350.324 639.637 355.156 656.266 361.6V377.708V377.66Z" fill="#153D5E"/>
<path d="M820.616 197.251H755.71V480.516H820.616V197.251Z" fill="#153D5E"/>
<path d="M822.748 92.1226H753.01V153.807H822.748V92.1226Z" fill="#153D5E"/>
<path d="M1013.11 191.375C969.142 191.375 942.848 214.447 924.608 241.263V197.297H859.702V480.562H924.608V320.713C924.608 276.748 950.902 250.454 988.425 250.454C1025.95 250.454 1049.07 275.658 1049.07 319.671V480.61H1113.97V300.341C1113.97 234.346 1076.97 191.422 1013.11 191.422V191.375Z" fill="#153D5E"/>
<path d="M1260.79 313.324C1227.53 302.617 1196.98 293.994 1196.98 273.622V272.532C1196.98 255.903 1211.47 244.106 1236.68 244.106C1260.27 244.106 1289.27 254.292 1316.6 270.922L1342.33 224.777C1312.29 204.926 1273.68 192.608 1238.24 192.608C1181.91 192.608 1137.38 225.345 1137.38 278.976V280.065C1137.38 334.264 1184.04 351.415 1225.88 363.211C1259.13 373.397 1289.17 380.93 1289.17 402.913V404.003C1289.17 422.764 1273.06 434.561 1245.21 434.561C1217.35 434.561 1183 422.764 1152.39 399.691L1123.45 443.704C1158.84 471.609 1203.37 486.059 1243.59 486.059C1302.58 486.059 1348.72 456.543 1348.72 396.991V395.901C1348.72 344.924 1302.06 326.163 1260.74 313.276L1260.79 313.324Z" fill="#153D5E"/>
<path d="M1434.33 91.2224H1364.59V152.907H1434.33V91.2224Z" fill="#153D5E"/>
<path d="M1367.3 480.516H1393.07H1432.2V464.74V197.251H1367.3V480.516Z" fill="#153D5E"/>
<path d="M2016.92 230.32C2016.92 230.32 2016.69 229.893 2016.54 229.704C2015.64 228.377 2014.74 226.956 2013.75 225.677C1996.55 203.315 1969.74 190.428 1934.91 190.428C1890.9 190.428 1864.65 213.501 1846.41 240.316V88H1781.51V330.995V479.237H1846.41V319.388C1846.41 313.513 1847.03 308.017 1847.98 302.806H1848.07L1848.45 300.484C1849.12 297.31 1849.87 294.278 1850.87 291.388C1855.32 278.075 1863.04 267.558 1873.23 260.404C1878.3 256.803 1884.03 254.103 1890.24 252.255C1896.44 250.407 1903.17 249.46 1910.33 249.46C1913.12 249.46 1915.77 249.602 1918.38 249.886C1923.54 250.455 1928.33 251.544 1932.78 253.108C1935.01 253.913 1937.14 254.766 1939.23 255.808C1941.5 256.898 1943.63 258.224 1945.67 259.598C1946.05 259.883 1946.38 260.167 1946.76 260.451C1958.84 269.216 1966.61 283.097 1969.55 301.574C1970.4 306.928 1970.97 312.518 1970.97 318.63V479.568H2035.87V299.3C2035.87 271.727 2029.24 248.323 2017.07 230.272L2016.92 230.32Z" fill="#153D5E"/>
<path d="M1681.97 238.752C1659.99 212.458 1630.47 190.476 1582.72 190.476C1522.74 190.476 1465.6 231.362 1455.65 301.621C1454.66 308.68 1453.95 315.882 1453.95 323.509V324.599C1453.95 372.828 1474.94 409.593 1505.49 432.049C1509.85 435.223 1514.45 438.066 1519.14 440.672C1520.28 441.288 1521.46 441.856 1522.6 442.425C1540.98 451.947 1561.54 457.112 1582.67 457.112C1629.34 457.112 1658.85 435.65 1682.45 405.092V427.075C1682.45 449.294 1677.57 467.345 1668.23 481.179C1653.64 502.783 1628.2 513.964 1592.86 513.964C1554.24 513.964 1522.03 502.688 1491.99 483.927L1467.88 532.725C1504.36 554.707 1547.8 566.504 1594.47 566.504C1645.44 566.504 1685.15 554.186 1710.87 528.413C1723.28 516.001 1732.52 500.177 1738.54 481.132C1743.94 464.029 1746.83 444.272 1746.83 421.674V346.203V196.35H1681.92V238.705L1681.97 238.752ZM1683.06 324.552C1683.06 331.516 1682.07 338.101 1680.36 344.355C1678.32 351.841 1675.34 358.852 1671.27 365.153C1670.13 366.954 1668.9 368.659 1667.62 370.317C1665.06 373.634 1662.17 376.713 1659.09 379.603C1657.53 381.025 1655.92 382.398 1654.26 383.725C1652.88 384.815 1651.56 385.999 1650.14 386.994C1648.95 387.799 1647.67 388.51 1646.39 389.268H1646.35C1643.03 391.305 1639.62 393.106 1636.02 394.716C1632.04 396.469 1627.82 397.938 1623.56 399.075C1619.86 400.117 1616.07 400.923 1612.14 401.444C1608.11 401.965 1604.08 402.297 1599.92 402.297C1597.97 402.297 1596.13 402.155 1594.23 402.012C1590.44 401.776 1586.7 401.397 1583.1 400.686C1567.18 397.654 1553.01 390.358 1542.12 379.698C1537.43 375.15 1533.35 369.938 1530.04 364.253C1528.95 362.453 1528 360.558 1527.05 358.615C1524.3 352.835 1522.27 346.534 1520.99 339.854C1520.84 339.144 1520.7 338.433 1520.61 337.675C1519.9 333.269 1519.47 328.673 1519.47 323.936V322.846C1519.47 317.019 1520.04 311.428 1521.08 306.122C1521.41 304.559 1521.84 303.043 1522.22 301.527C1523.17 297.926 1524.26 294.373 1525.68 291.056C1527.67 286.319 1530.13 281.865 1533.02 277.791C1538.75 269.595 1546.1 262.725 1554.62 257.419C1567.46 249.507 1583 245.101 1599.87 245.101C1615.79 245.101 1630.76 249.128 1643.55 256.282C1645.26 257.229 1646.91 258.224 1648.52 259.314C1651.98 261.588 1655.3 264.004 1658.28 266.752C1663.97 271.916 1668.85 277.886 1672.73 284.566C1674.01 286.792 1675.2 289.114 1676.29 291.483C1677.71 294.704 1678.85 298.068 1679.84 301.527C1681.78 308.396 1682.92 315.645 1682.92 323.415V324.504L1683.06 324.552Z" fill="#153D5E"/>
<path d="M2299.67 115.667V109.224V109.034L2162.61 166.739L2131.1 179.957V118.557H2066.2V207.388V401.301C2066.2 449.909 2086.85 473.219 2118.64 481.131C2127.55 483.357 2137.31 484.447 2147.78 484.447C2158.91 484.447 2168.72 483.263 2177.67 481.131C2188.19 478.667 2197.52 474.877 2206.24 469.95V416.84C2193.35 423.284 2180.52 426.505 2166.02 426.505C2144.04 426.505 2131.15 416.319 2131.15 391.115V250.169L2299.76 179.389V178.773L2300.19 178.583L2299.81 115.667H2299.67Z" fill="#153D5E"/>
</g>
<defs>
<clipPath id="clip0_27141_4536">
<rect width="2206" height="478.504" fill="white" transform="translate(94 88)"/>
</clipPath>
</defs>
</svg>
