<svg width="117" height="42" viewBox="0 0 117 42" fill="none" xmlns="http://www.w3.org/2000/svg">
<path d="M36.9813 18.0568H25.8482C25.2335 18.0568 24.7554 18.7393 24.9603 19.2853L27.6241 26.1786C27.7607 26.4516 27.4875 26.7928 27.1459 26.7928L23.7309 26.5881C23.5943 26.5881 23.4577 26.6563 23.3211 26.7928L20.7256 30.5466C20.589 30.7513 20.3158 30.8196 20.0426 30.6831L16.0811 28.0213C15.9445 27.8848 15.7396 27.8848 15.5347 28.0213L10.0706 31.7068C9.72913 31.9798 9.25102 31.6386 9.38762 31.2291L10.9586 25.7691C11.0269 25.5643 10.8903 25.2913 10.6853 25.2231L7.8167 24.0628C7.54349 23.9263 7.40689 23.5851 7.61179 23.3803L10.1389 20.2408C10.2755 20.1043 10.2755 19.8313 10.1389 19.6948L8.0216 16.6236C7.8167 16.3506 8.0216 15.9411 8.36311 15.9411L11.7099 15.6681C11.9831 15.6681 12.1197 15.4633 12.1197 15.1903L11.8465 10.5493C11.8465 10.2081 12.188 10.0033 12.4612 10.0716L16.5593 11.7778C16.7642 11.8461 16.9691 11.7778 17.1057 11.6413L19.9743 8.50184C20.1792 8.22884 20.589 8.29709 20.7256 8.63834L22.4332 13.0063C22.6381 13.5523 23.3211 13.7571 23.7992 13.4158L30.4927 8.43359C31.244 7.88759 30.7659 6.65909 29.8097 6.79559L25.5067 7.34159C25.3018 7.34159 25.0969 7.27334 25.0286 7.06859L22.7064 1.13084C22.4332 0.516593 21.6818 0.380093 21.2037 0.857843L16.1494 6.31784C16.0128 6.45434 15.8079 6.52259 15.603 6.45434L8.97782 3.65609C8.36311 3.38309 7.7484 3.79259 7.68009 4.47509L7.40689 11.3001C7.40689 11.5731 7.20199 11.7096 6.99708 11.7096L0.918272 12.1191C0.23526 12.1873 -0.174548 12.9381 0.23526 13.5523L4.26503 19.4901C4.40164 19.6266 4.40164 19.8996 4.26503 20.0361L0.166959 24.7453C-0.174548 25.0866 0.0303561 25.8373 0.576766 26.0421L5.28955 28.0896C5.49445 28.1578 5.63106 28.4308 5.56276 28.6356L2.5575 40.3063C2.3526 41.1253 3.30882 41.7396 3.99183 41.2618L15.2615 33.2083C15.3981 33.0718 15.603 33.0718 15.8079 33.2083L20.9305 36.8256C21.3403 37.0986 21.9551 37.0303 22.2283 36.5526L25.4384 31.6386C25.5067 31.5021 25.7116 31.4338 25.8482 31.4338L33.498 32.3893C34.1127 32.4576 34.7274 31.9798 34.5225 31.3656L31.3123 23.1073C31.244 22.9026 31.3123 22.6296 31.5855 22.4931L37.3911 19.7631C38.2107 19.3536 37.9375 18.0568 36.9813 18.0568Z" fill="#7121DB"></path>
<path d="M116.689 18.0569H108.083C107.947 18.0569 107.742 18.1934 107.742 18.3981V22.2201C107.742 22.3566 107.878 22.5614 108.083 22.5614H111.772C111.977 22.5614 112.113 22.6979 112.113 22.9026C112.113 24.8819 111.703 28.4309 108.083 28.4309C105.146 28.4309 103.985 24.8819 103.985 20.7869C103.985 15.8729 105.215 12.8699 107.878 12.8699C109.859 12.8699 110.474 14.5079 110.679 15.1221C110.747 15.2586 110.815 15.3269 110.952 15.3269H115.46C115.665 15.3269 115.801 15.1904 115.801 14.9856C115.596 12.5286 113.547 8.22888 108.015 8.22888C104.122 8.22888 100.502 10.6176 99.3408 16.4189V8.91138C99.3408 8.84313 99.2725 8.77488 99.2042 8.77488H94.4231C94.3548 8.77488 94.2865 8.84313 94.2865 8.91138V22.2884C94.2865 22.4249 94.0816 22.4931 94.0133 22.3566L87.7979 8.84313C87.7979 8.77488 87.7296 8.77488 87.6613 8.77488H83.3583C83.29 8.77488 83.2217 8.84313 83.2217 8.91138V16.4189C81.6508 11.6414 77.4161 8.22888 71.952 8.22888C65.8049 8.22888 61.2287 12.4604 60.2042 18.1251H51.5982C51.5299 18.1251 51.4616 18.1934 51.4616 18.2616V22.3566C51.4616 22.4249 51.5299 22.4931 51.5982 22.4931H55.628C55.6963 22.4931 55.7646 22.5614 55.7646 22.6296C55.7646 24.5406 55.4231 28.2944 51.7348 28.2944C48.7979 28.2944 47.6368 24.7454 47.6368 20.6504C47.6368 15.7364 48.8662 12.7334 51.5299 12.7334C53.6473 12.7334 54.1937 14.6444 54.3303 15.1221C54.3303 15.1904 54.3986 15.2586 54.4669 15.2586H59.248C59.3163 15.2586 59.3846 15.1904 59.3846 15.1221C59.3163 12.7334 57.1989 8.22888 51.5299 8.22888C46.8171 8.22888 42.5142 11.7096 42.5142 20.6504C42.5142 26.7929 44.9047 32.9354 51.5982 32.9354C56.5842 32.9354 59.7261 29.1134 60.4091 24.4724C61.9117 29.3864 66.2147 32.9354 71.8154 32.9354C77.2112 32.9354 81.5142 29.5229 83.0851 24.7454V32.3211C83.0851 32.3894 83.1534 32.4576 83.2217 32.4576H88.0028C88.0711 32.4576 88.1394 32.3894 88.1394 32.3211V19.0806C88.1394 18.9441 88.3443 18.8759 88.4126 19.0124L94.628 32.3211C94.628 32.3894 94.6963 32.3894 94.7646 32.3894H98.9993C99.0676 32.3894 99.1359 32.3211 99.1359 32.2529V24.7454C100.092 29.2499 102.688 32.9354 107.878 32.9354C113.547 32.9354 116.826 27.9531 116.826 22.4931V18.3981C117.031 18.1934 116.826 18.0569 116.689 18.0569ZM71.8837 27.9531C67.9222 27.9531 65.1219 24.8819 65.1219 20.5821C65.1219 16.2824 67.9222 13.2111 71.8837 13.2111C75.8452 13.2111 78.6455 16.2824 78.6455 20.5821C78.6455 24.8819 75.9135 27.9531 71.8837 27.9531Z" fill="#1D0254"></path>
</svg>
