<svg width="292" height="57" viewBox="0 0 292 57" fill="none" xmlns="http://www.w3.org/2000/svg">
<path d="M62.8878 7.27112L68.9313 3.98407C69.1607 3.85895 69.4403 4.02428 69.4403 4.28177V21.2946C70.2669 20.2909 71.3109 19.4855 72.4979 18.9353C73.6827 18.3851 74.9799 18.1064 76.2889 18.1181C82.1364 18.1181 85.6505 21.8353 85.6505 28.1407V42.7094C85.6505 42.8981 85.4974 43.0495 85.3064 43.0495H79.0979C78.907 43.0495 78.7539 42.8981 78.7539 42.7094V29.0517C78.7539 25.7339 77.2205 23.8209 74.2008 23.8209C71.6256 23.8209 69.4974 25.5848 69.4974 29.6868V42.7082C69.4974 42.897 69.3443 43.0484 69.1533 43.0484H63.055C62.864 43.0484 62.7109 42.897 62.7109 42.7082V7.56604C62.7109 7.44092 62.7799 7.32754 62.89 7.26833L62.8878 7.27112Z" fill="#101111"/>
<path d="M135.218 7.27074L141.359 3.98089C141.589 3.85801 141.868 4.02334 141.868 4.28083L141.775 21.2959C142.6 20.2922 143.645 19.4845 144.831 18.9344C146.015 18.3842 147.313 18.1055 148.624 18.1194C154.464 18.1194 157.978 21.8366 157.978 28.142V42.7107C157.978 42.8994 157.825 43.0508 157.634 43.0508H151.474C151.283 43.0508 151.129 42.8994 151.129 42.7107V29.0536C151.129 25.7358 149.596 23.8228 146.576 23.8228C144.001 23.8228 141.873 25.5867 141.873 29.6892V42.7107C141.873 42.8994 141.72 43.0508 141.529 43.0508H135.431C135.242 43.0508 135.087 42.8994 135.087 42.7107L135.039 7.57068C135.039 7.44557 135.109 7.32939 135.218 7.27074Z" fill="#101111"/>
<path d="M264.749 7.27112L270.791 3.98407C271.02 3.85895 271.3 4.02428 271.3 4.28177V21.2946C272.126 20.2909 273.17 19.4855 274.355 18.9353C275.54 18.3851 276.839 18.1064 278.148 18.1181C283.989 18.1181 287.507 21.8353 287.507 28.1407V42.7094C287.507 42.8981 287.357 43.0495 287.165 43.0495H280.957C280.766 43.0495 280.61 42.8981 280.61 42.7094V29.0517C280.61 25.7339 279.079 23.8209 276.053 23.8209C273.478 23.8209 271.349 25.5848 271.349 29.6868V42.7082C271.349 42.897 271.196 43.0484 271.005 43.0484H264.914C264.723 43.0484 264.57 42.897 264.57 42.7082V7.56604C264.57 7.44092 264.639 7.32754 264.749 7.26833V7.27112Z" fill="#101111"/>
<path d="M116.261 37.3244C115.382 37.3412 114.508 37.1803 113.693 36.8519C112.876 36.5235 112.136 36.037 111.517 35.4209C110.896 34.8048 110.409 34.0703 110.084 33.2627C109.759 32.455 109.603 31.5909 109.627 30.724C109.606 29.8572 109.763 28.9976 110.088 28.1921C110.415 27.3895 110.903 26.6595 111.524 26.0479C112.145 25.434 112.883 24.952 113.698 24.6308C114.513 24.3097 115.384 24.1538 116.261 24.1751C119.926 24.1751 122.603 27.108 122.603 30.7235C122.603 34.339 119.926 37.3244 116.261 37.3244ZM122.405 21.1947C121.471 20.1837 120.329 19.381 119.056 18.8426C117.783 18.3019 116.407 18.0372 115.022 18.0657C109.427 18.0657 102.992 22.1252 102.992 30.7754C102.992 39.4257 109.676 43.483 114.926 43.5159C116.336 43.5489 117.735 43.2774 119.028 42.7222C120.32 42.1648 121.471 41.3359 122.406 40.292V42.5899C122.429 43.3763 122.293 44.1627 122.002 44.895C121.711 45.6295 121.271 46.2975 120.713 46.86C120.151 47.4219 119.483 47.8637 118.744 48.1636C118.003 48.4613 117.213 48.6099 116.413 48.5982C114.975 48.6501 113.551 48.2815 112.323 47.5352C112.103 47.4006 111.891 47.2565 111.688 47.1007C111.577 47.018 111.432 47.0013 111.31 47.0677L105.742 50.0716C105.539 50.18 105.503 50.452 105.666 50.6123C108.093 53.0375 111.8 54.7684 116.41 54.7684C124.778 54.7684 129.183 49.1997 129.183 42.3067V18.0819C129.183 17.8221 128.901 17.659 128.671 17.7842L122.403 21.1941L122.405 21.1947Z" fill="#101111"/>
<path d="M179.108 43.0481H175.253C167.379 43.0481 164.805 40.4056 164.805 32.4379V13.111C164.805 12.9881 164.874 12.8725 164.984 12.8133L171.082 9.49777C171.311 9.37489 171.591 9.53798 171.591 9.79771V18.611H175.896C176.087 18.611 176.24 18.7624 176.24 18.9512V24.2786C176.24 24.4652 176.087 24.6188 175.896 24.6188H171.591V32.391C171.591 36.0277 172.04 36.7292 175.69 36.7857H175.979C176.096 36.7857 176.206 36.8516 176.261 36.951L179.393 42.5812C179.507 42.7912 179.354 43.0481 179.108 43.0481Z" fill="#101111"/>
<path d="M198.581 30.8322C198.604 29.1744 197.962 27.5731 196.791 26.3806C195.624 25.1881 194.023 24.5033 192.341 24.4726C191.512 24.4865 190.695 24.6641 189.936 24.992C189.176 25.3204 188.49 25.7924 187.917 26.3856C187.343 26.976 186.894 27.6753 186.596 28.4377C186.297 29.2007 186.154 30.015 186.178 30.8322C186.156 31.6493 186.3 32.4615 186.598 33.2245C186.897 33.9874 187.346 34.6839 187.919 35.2743C188.493 35.8647 189.178 36.3372 189.938 36.6651C190.697 36.9935 191.515 37.1706 192.341 37.1846C194.02 37.1538 195.618 36.4691 196.788 35.2788C197.957 34.0885 198.602 32.49 198.581 30.8322ZM179.516 30.8322C179.525 28.3316 180.285 25.8874 181.702 23.8135C183.116 21.7379 185.123 20.1226 187.468 19.173C189.811 18.2213 192.389 17.9783 194.875 18.4715C197.359 18.9653 199.641 20.174 201.43 21.9479C203.219 23.7191 204.435 25.9745 204.927 28.4304C205.417 30.8841 205.161 33.4278 204.189 35.7374C203.217 38.047 201.573 40.0214 199.464 41.41C197.358 42.7985 194.878 43.5403 192.343 43.5403C190.655 43.5425 188.982 43.2169 187.42 42.5768C185.86 41.9389 184.444 41.0017 183.25 39.8209C182.058 38.6401 181.114 37.2376 180.474 35.6955C179.834 34.1528 179.509 32.4995 179.516 30.8322Z" fill="#101111"/>
<path d="M209.851 33.515V18.9872C209.851 18.7984 210.004 18.647 210.195 18.647H216.389C216.58 18.647 216.733 18.7984 216.733 18.9872V32.637C216.733 35.9151 218.266 37.8209 221.286 37.8209C223.861 37.8209 225.99 36.057 225.99 31.955V18.9537C225.99 18.7649 226.143 18.6135 226.334 18.6135H232.432C232.623 18.6135 232.776 18.7649 232.776 18.9537V42.711C232.776 42.8998 232.623 43.0511 232.432 43.0511H226.388C226.197 43.0511 226.044 42.8998 226.044 42.711V40.3472C225.218 41.3509 224.174 42.1563 222.989 42.7065C221.804 43.2567 220.507 43.5354 219.198 43.5237C213.365 43.5376 209.851 39.8205 209.851 33.515Z" fill="#101111"/>
<path d="M91.8363 18.6133H97.9346C98.1255 18.6133 98.2786 18.7646 98.2786 18.9534V42.7107C98.2786 42.8995 98.1255 43.0509 97.9346 43.0509H91.8363C91.6453 43.0509 91.4922 42.8995 91.4922 42.7107V18.9534C91.4922 18.7646 91.6447 18.6133 91.8363 18.6133Z" fill="#101111"/>
<path d="M94.8628 8.10515C95.4097 8.0789 95.9543 8.16659 96.4656 8.36041C96.9769 8.55422 97.4402 8.85137 97.8272 9.23398C98.2142 9.61658 98.5153 10.0724 98.7136 10.5778C98.9119 11.0833 98.9978 11.6218 98.9718 12.1602C98.9956 12.6964 98.9074 13.2326 98.7091 13.7331C98.5108 14.2335 98.2074 14.6871 97.8204 15.0652C97.4334 15.4428 96.9701 15.736 96.4611 15.9271C95.9521 16.1159 95.4074 16.1985 94.8628 16.1678C94.3204 16.1985 93.7809 16.1159 93.2741 15.9248C92.7679 15.7338 92.3069 15.4406 91.9244 15.0608C91.5396 14.6832 91.2436 14.2296 91.0498 13.7286C90.8566 13.2282 90.7724 12.6942 90.804 12.1608C90.7707 11.6246 90.8543 11.0861 91.0453 10.5834C91.2362 10.0802 91.5351 9.62217 91.917 9.23956C92.2995 8.85696 92.7605 8.55925 93.2667 8.3632C93.7735 8.16603 94.3182 8.0789 94.8628 8.10515Z" fill="#101111"/>
<path d="M261.322 36.7457C261.542 36.8022 261.645 37.0502 261.532 37.2462C261.073 38.0326 260.517 38.8023 259.908 39.4614C259.705 39.6787 259.497 39.8937 259.277 40.0993C259.17 40.2032 259.058 40.3026 258.945 40.4014C258.718 40.5997 258.486 40.7885 258.245 40.9706C258.126 41.0628 258.004 41.1499 257.88 41.2376C255.802 42.6948 253.327 43.4952 250.78 43.5377C249.409 43.5874 248.04 43.4221 246.727 43.049C246.55 42.9993 246.373 42.9428 246.196 42.8836C246.069 42.8434 245.945 42.7987 245.821 42.7535C245.721 42.7183 245.623 42.6803 245.525 42.6423C245.267 42.5407 245.011 42.4295 244.766 42.3117C244.62 42.243 244.476 42.1726 244.336 42.0989C244.254 42.0587 244.178 42.0162 244.102 41.976C243.182 41.4755 242.324 40.8611 241.555 40.1529C240.786 39.4447 240.108 38.6459 239.54 37.7774C239.368 37.5177 239.207 37.2484 239.055 36.9748H239.053C238.902 36.6983 238.761 36.4195 238.632 36.1364C237.934 34.6177 237.545 32.9811 237.493 31.3139L237.488 31.3066C237.416 29.6416 237.679 27.9765 238.262 26.4132C238.369 26.1177 238.494 25.8272 238.623 25.5441C238.623 25.5441 238.623 25.5435 238.623 25.5418C238.754 25.2586 238.893 24.9799 239.045 24.7057C239.549 23.7964 240.166 22.9462 240.882 22.1833C241.596 21.4203 242.403 20.7472 243.28 20.1831C243.352 20.1356 243.428 20.0887 243.505 20.0412C243.641 19.9563 243.777 19.8737 243.918 19.7977C244.159 19.6609 244.402 19.5335 244.651 19.4106C244.746 19.3632 244.847 19.3185 244.942 19.2738C245.062 19.2196 245.181 19.1677 245.303 19.118C245.475 19.0448 245.647 18.9789 245.819 18.9146C247.102 18.4449 248.454 18.1801 249.825 18.1304C252.369 17.9841 254.896 18.603 257.077 19.9038C257.206 19.9815 257.337 20.0597 257.462 20.1423C257.717 20.3054 257.961 20.4775 258.202 20.6595C258.321 20.7495 258.441 20.8416 258.556 20.9383C258.79 21.1248 259.015 21.3231 259.232 21.5286C259.803 22.0621 260.321 22.648 260.782 23.2763C260.899 23.4367 260.849 23.6662 260.675 23.7651L255.563 26.75C255.417 26.8349 255.233 26.7997 255.123 26.6746C254.557 26.0227 253.857 25.4915 253.062 25.1089C251.719 24.4666 250.2 24.3013 248.75 24.6437C247.3 24.9861 246.017 25.8127 245.114 26.9818C244.421 27.8793 243.986 28.9417 243.848 30.0543C243.827 30.2124 243.815 30.3733 243.807 30.5336C243.798 30.7157 243.798 30.8972 243.805 31.0815C243.812 31.2658 243.827 31.4379 243.848 31.6127C243.867 31.773 243.893 31.9294 243.924 32.0875C244.149 33.1811 244.66 34.1988 245.418 35.0438C246.406 36.1442 247.746 36.8742 249.22 37.1099C250.692 37.344 252.197 37.0675 253.484 36.3307C253.986 36.0403 254.445 35.6884 254.844 35.2846C254.929 35.1969 255.051 35.1595 255.171 35.1902C256.083 35.4214 260.008 36.4134 261.317 36.7485L261.322 36.7457Z" fill="#101111"/>
<path d="M17 4.78392C17 4.37861 17.3286 4.05005 17.7339 4.05005H42.2661C42.6714 4.05005 43 4.37861 43 4.78392V29.3162C43 29.7215 42.6714 30.05 42.2661 30.05H17V4.78392Z" fill="#101111"/>
<path d="M17 42.3162C17 42.7215 16.6714 43.05 16.2661 43.05L4.73387 43.05C4.32856 43.05 4 42.7215 4 42.3162L4 30.7839C4 30.3786 4.32857 30.05 4.73387 30.05L17 30.05L17 42.3162Z" fill="#101111"/>
</svg>
