<svg width="135" height="20" viewBox="0 0 135 20" fill="none" xmlns="http://www.w3.org/2000/svg">
<g clip-path="url(#clip0_53_2)">
<path fill-rule="evenodd" clip-rule="evenodd" d="M65.4701 5.58105C66.7624 5.58105 67.8833 5.87705 68.8197 6.48183C69.7447 7.06158 70.4545 7.83358 70.945 8.79464C71.4334 9.75179 71.6776 10.7815 71.6776 11.8798C71.6776 12.0738 71.6686 12.2679 71.6515 12.4618V13.3691H61.6431C61.7175 14.1623 61.9176 14.8211 62.2342 15.3539C62.611 15.9407 63.072 16.3732 63.6153 16.6604C64.1847 16.9522 64.7845 17.0974 65.4177 17.0974C66.339 17.0974 67.0222 16.9047 67.4984 16.5521C67.9909 16.1876 68.3706 15.6765 68.6328 15.0061L68.6995 14.8357H71.3868L71.305 15.1673C70.9965 16.4166 70.351 17.4777 69.3732 18.3448L69.3712 18.3467C68.3726 19.2141 67.0447 19.6342 65.4177 19.6343C64.1598 19.6343 63.0348 19.3468 62.0509 18.765L62.046 18.7619C61.0834 18.1639 60.3221 17.3395 59.7629 16.2954C59.2012 15.2284 58.9238 13.9954 58.9238 12.6077C58.9238 11.2214 59.191 9.99917 59.7355 8.9493C60.2779 7.91897 61.0196 7.10958 61.9593 6.5315L62.0509 6.47636C63.0356 5.87664 64.1786 5.58105 65.4701 5.58105ZM65.4177 8.06599C64.4699 8.06599 63.6439 8.3495 62.9292 8.91636C62.3119 9.41807 61.9008 10.1031 61.704 10.9883H68.9527C68.8414 10.1135 68.4871 9.43717 67.9009 8.93775L67.8956 8.93305C67.2574 8.36007 66.4392 8.06599 65.4177 8.06599Z" fill="#FFFAF6"/>
<path fill-rule="evenodd" clip-rule="evenodd" d="M92.9855 5.58105C94.8693 5.58105 96.2971 6.07811 97.2007 7.13019C98.1032 8.1433 98.5413 9.48485 98.5413 11.1259V19.3223H96.1531L95.9947 17.5885C95.6319 18.0812 95.1847 18.5208 94.6541 18.907C93.9648 19.4038 92.9961 19.6342 91.7868 19.6343C90.7322 19.6343 89.8342 19.447 89.1069 19.0563C88.391 18.6717 87.8473 18.161 87.4893 17.5215L87.4873 17.5187C87.1355 16.8718 86.96 16.169 86.96 15.4153C86.96 14.0246 87.4697 12.941 88.5051 12.2079L88.6029 12.1401C89.6215 11.4509 90.9425 11.1183 92.5424 11.1183H95.8172C95.816 10.0315 95.5652 9.26562 95.1123 8.77187C94.6627 8.28146 93.971 8.01399 92.9855 8.01399C92.1918 8.01399 91.5414 8.18673 91.0202 8.51726C90.5375 8.83432 90.2151 9.33685 90.0699 10.0605L90.0269 10.2756H87.2705L87.2999 9.98146C87.3916 9.07007 87.6943 8.2757 88.2146 7.60803L88.2163 7.60632L88.2179 7.60444C88.751 6.94415 89.4301 6.4415 90.2499 6.09603C91.0689 5.75093 91.982 5.58105 92.9855 5.58105ZM92.7249 13.3691C91.5586 13.3691 90.8054 13.5691 90.3943 13.9063C89.9921 14.2497 89.7888 14.7005 89.7888 15.2852C89.7888 15.8951 89.9889 16.3441 90.371 16.6668C90.7559 16.9918 91.3442 17.1754 92.1779 17.1754C92.9675 17.1754 93.6146 16.9872 94.1346 16.6256L94.1375 16.6234C94.6861 16.2531 95.0964 15.7636 95.3717 15.1499L95.3729 15.1473L95.3741 15.1448C95.6327 14.5997 95.7787 14.0086 95.8106 13.3691H92.7249Z" fill="#FFFAF6"/>
<path fill-rule="evenodd" clip-rule="evenodd" d="M104.737 7.12237C105.044 6.78449 105.421 6.47792 105.864 6.20188L105.866 6.20033C106.626 5.73792 107.51 5.51135 108.507 5.51131C109.661 5.51135 110.693 5.78204 111.59 6.33057C112.49 6.88045 113.192 7.68453 113.698 8.73012C114.206 9.78045 114.454 11.0445 114.454 12.512C114.454 13.9964 114.206 15.2771 113.698 16.3442C113.192 17.3912 112.48 18.1969 111.562 18.7465C110.665 19.2938 109.644 19.5645 108.507 19.5645C107.481 19.5645 106.59 19.3578 105.846 18.9309L105.839 18.9269C105.289 18.5889 104.844 18.1578 104.508 17.6356L104.316 19.2526H102.013V0H104.737V7.12237ZM108.22 8.12625C107.198 8.12625 106.368 8.48661 105.709 9.20869L105.707 9.2109C105.06 9.90371 104.711 10.9947 104.711 12.5379C104.711 14.0795 105.06 15.1807 105.708 15.8918C106.366 16.5966 107.197 16.9497 108.22 16.9497C109.244 16.9497 110.064 16.5965 110.705 15.8933C111.354 15.1823 111.703 14.0805 111.703 12.5379C111.703 10.9953 111.354 9.90371 110.707 9.2109L110.705 9.20853L110.703 9.2062C110.062 8.48641 109.242 8.12625 108.22 8.12625Z" fill="#FFFAF6"/>
<path fill-rule="evenodd" clip-rule="evenodd" d="M128.707 5.69141C129.998 5.69145 131.118 5.98684 132.054 6.59019C132.98 7.17015 133.691 7.94288 134.182 8.90505C134.671 9.86215 134.915 10.8919 134.915 11.9901C134.915 12.1842 134.906 12.3782 134.889 12.5721V13.4795H124.88C124.955 14.2727 125.155 14.9316 125.472 15.4644C125.848 16.0512 126.309 16.4835 126.853 16.7707C127.422 17.0625 128.022 17.2078 128.655 17.2078C129.576 17.2078 130.26 17.0151 130.736 16.6625C131.228 16.2979 131.608 15.7868 131.87 15.1164L131.937 14.946H134.624L134.542 15.2776C134.234 16.5269 133.588 17.588 132.611 18.4552L132.609 18.4571C131.61 19.3245 130.282 19.7446 128.655 19.7446C127.397 19.7446 126.272 19.4571 125.288 18.8753L125.283 18.8722C124.321 18.2742 123.559 17.4499 123 16.4057C122.438 15.3388 122.161 14.1057 122.161 12.718C122.161 11.3318 122.428 10.1096 122.972 9.0597C123.532 7.99615 124.305 7.16819 125.288 6.58676C126.273 5.98705 127.416 5.69141 128.707 5.69141ZM128.655 8.17639C127.707 8.17639 126.881 8.45986 126.166 9.02672C125.549 9.52847 125.138 10.2135 124.941 11.0987H132.19C132.079 10.2239 131.724 9.54758 131.138 9.04815L131.135 9.04578L131.133 9.04345C130.495 8.47047 129.676 8.17639 128.655 8.17639Z" fill="#FFFAF6"/>
<path d="M45.3227 3.02266H41.1811V16.8893H45.3227V19.3223H34.3145V16.8893H38.4563V3.02266H34.3145V0.589844H45.3227V3.02266Z" fill="#FFFAF6"/>
<path d="M52.4012 5.89323H57.559V8.30009H52.4012V15.1034C52.4012 15.8009 52.5608 16.2165 52.805 16.436C53.0779 16.6654 53.5859 16.8116 54.3992 16.8116H57.559V19.3225H53.7484C52.5252 19.3225 51.5274 19.0258 50.7878 18.4012C50.0195 17.7525 49.6767 16.6205 49.6767 15.1034V8.30009H46.3945V5.89323H48.6163C49.0164 5.89323 49.2974 5.79588 49.4913 5.63176C49.6853 5.46784 49.826 5.2087 49.8886 4.81874L49.8894 4.81311L50.2944 2.5918H52.4012V5.89323Z" fill="#FFFAF6"/>
<path d="M85.4746 8.42995H82.5234C81.5306 8.42995 80.7975 8.75889 80.2836 9.39587L80.2816 9.39837C79.7559 10.034 79.4831 10.8623 79.4831 11.9059V16.9155H83.547V19.3223H73.4502V16.9155H76.7585V8.6822C76.7585 8.50428 76.7156 8.42028 76.6771 8.38011C76.6403 8.34203 76.5658 8.29983 76.4018 8.29983H73.7889V5.89297H77.2093C77.8328 5.89297 78.3621 6.06403 78.7692 6.42966C79.0654 6.69579 79.247 7.04407 79.3284 7.45746C79.5542 7.0166 79.8496 6.64375 80.2174 6.34346L80.219 6.3422C80.8723 5.8246 81.7564 5.58105 82.836 5.58105H85.4746V8.42995Z" fill="#FFFAF6"/>
<path d="M119.63 19.3375H116.905V0.0849609H119.63V19.3375Z" fill="#FFFAF6"/>
<path d="M27.5034 0.472656C27.3954 0.620983 24.3905 4.61409 13.7517 4.61409C3.1129 4.61409 0.108164 0.621269 0 0.472656H27.5034Z" fill="#FFFAF6"/>
<path d="M22.8286 6.11914C22.7571 6.23187 20.7735 9.2549 13.7527 9.2549C6.73187 9.2549 4.74802 6.23143 4.67676 6.11914H22.8286Z" fill="#FFFAF6"/>
<path d="M4.6748 13.8959C4.74586 13.784 6.72897 10.7598 13.7507 10.7598C20.7735 10.7598 22.7562 13.7849 22.8266 13.8959H4.6748Z" fill="#FFFAF6"/>
<path d="M0.000976562 19.5419C0.109263 19.3931 3.11457 15.4004 13.7526 15.4004C24.3907 15.4004 27.3962 19.3933 27.5043 19.5419H0.000976562Z" fill="#FFFAF6"/>
</g>
<defs>
<clipPath id="clip0_53_2">
<rect width="135" height="20" fill="white"/>
</clipPath>
</defs>
</svg>
