<?xml version="1.0" encoding="utf-8"?>
<!-- Generator: Adobe Illustrator 16.0.4, SVG Export Plug-In . SVG Version: 6.00 Build 0)  -->
<!DOCTYPE svg PUBLIC "-//W3C//DTD SVG 1.1//EN" "http://www.w3.org/Graphics/SVG/1.1/DTD/svg11.dtd">
<svg version="1.1" id="Layer_1" xmlns="http://www.w3.org/2000/svg" xmlns:xlink="http://www.w3.org/1999/xlink" x="0px" y="0px"
	 width="480px" height="180px" viewBox="0 0 480 180" enable-background="new 0 0 480 180" xml:space="preserve">
<polygon fill="#76B4DF" points="57.268,147 1,147 1,9 100,9 100,147 82.491,147 71.172,169.313 "/>
<g>
	<path d="M35.895,26.871v59.722h3.228c1.169,0,2.082-0.164,2.737-0.492c0.654-0.327,1.356-0.935,2.105-1.824L61.86,62.171
		c0.795-0.936,1.638-1.673,2.527-2.211c0.888-0.537,2.058-0.807,3.509-0.807h15.86L61.37,85.891
		c-0.796,0.982-1.614,1.883-2.457,2.702c-0.842,0.819-1.754,1.533-2.737,2.141c0.982,0.702,1.847,1.521,2.597,2.456
		c0.748,0.936,1.497,1.942,2.245,3.017l24.001,34.95H69.37c-1.358,0-2.503-0.233-3.438-0.701c-0.937-0.468-1.779-1.264-2.526-2.388
		l-18.317-27.298c-0.701-1.076-1.403-1.777-2.105-2.104c-0.702-0.328-1.755-0.493-3.158-0.493h-3.93v32.985H18.561V26.871H35.895z"
		/>
</g>
<g>
	<path d="M133.719,26.061v105.117h-17.472V26.061H133.719z"/>
	<path d="M210.329,131.178h-7.852c-1.651,0-2.948-0.248-3.891-0.743c-0.943-0.494-1.651-1.496-2.122-3.007l-1.556-5.163
		c-1.839,1.652-3.643,3.102-5.412,4.351c-1.769,1.25-3.596,2.299-5.482,3.147c-1.887,0.848-3.891,1.485-6.013,1.909
		c-2.122,0.425-4.48,0.637-7.073,0.637c-3.066,0-5.896-0.413-8.488-1.24c-2.595-0.829-4.824-2.069-6.686-3.726
		c-1.863-1.656-3.313-3.716-4.35-6.175c-1.039-2.463-1.557-5.325-1.557-8.59c0-2.743,0.718-5.453,2.157-8.126
		c1.438-2.672,3.832-5.085,7.181-7.238c3.348-2.152,7.805-3.939,13.37-5.358c5.564-1.419,12.473-2.13,20.726-2.13v-4.277
		c0-4.894-1.026-8.519-3.078-10.87c-2.051-2.353-5.034-3.528-8.948-3.528c-2.83,0-5.188,0.33-7.074,0.99
		c-1.886,0.661-3.525,1.404-4.916,2.229c-1.392,0.825-2.678,1.568-3.854,2.228c-1.18,0.661-2.477,0.99-3.892,0.99
		c-1.179,0-2.193-0.306-3.042-0.919c-0.849-0.613-1.533-1.368-2.051-2.265l-3.183-5.587c8.348-7.64,18.416-11.46,30.205-11.46
		c4.244,0,8.029,0.696,11.354,2.086c3.325,1.392,6.143,3.325,8.454,5.801c2.31,2.476,4.067,5.436,5.27,8.878
		c1.202,3.443,1.804,7.215,1.804,11.317V131.178z M176.375,120.285c1.792,0,3.442-0.164,4.951-0.49
		c1.509-0.323,2.937-0.811,4.28-1.459c1.344-0.65,2.641-1.452,3.891-2.403c1.25-0.952,2.511-2.079,3.785-3.378v-12.148
		c-5.093,0-9.35,0.32-12.769,0.963c-3.42,0.64-6.166,1.461-8.241,2.457c-2.076,0.999-3.549,2.163-4.42,3.493
		c-0.874,1.328-1.31,2.777-1.31,4.345c0,3.088,0.907,5.295,2.724,6.626C171.081,119.619,173.451,120.285,176.375,120.285z"/>
	<path d="M261.332,131.178h-15.845L216.625,58.6h14.501c1.272,0,2.345,0.308,3.218,0.92c0.874,0.614,1.473,1.392,1.804,2.334
		l14.008,38.765c0.8,2.264,1.47,4.481,2.016,6.648c0.538,2.17,1.023,4.341,1.448,6.509c0.424-2.168,0.908-4.339,1.451-6.509
		c0.542-2.167,1.238-4.384,2.088-6.648l14.358-38.765c0.33-0.942,0.921-1.72,1.771-2.334c0.849-0.612,1.86-0.92,3.038-0.92h13.794
		L261.332,131.178z"/>
	<path d="M321.672,37.449c0,1.51-0.307,2.924-0.919,4.245c-0.613,1.32-1.427,2.475-2.44,3.466c-1.016,0.99-2.206,1.78-3.574,2.37
		s-2.828,0.883-4.385,0.883c-1.51,0-2.937-0.293-4.279-0.883c-1.344-0.59-2.511-1.38-3.502-2.37
		c-0.991-0.991-1.781-2.146-2.37-3.466s-0.883-2.734-0.883-4.245c0-1.557,0.294-3.017,0.883-4.385
		c0.589-1.368,1.379-2.546,2.37-3.538c0.991-0.99,2.158-1.779,3.502-2.37c1.343-0.589,2.77-0.884,4.279-0.884
		c1.557,0,3.017,0.295,4.385,0.884c1.368,0.59,2.559,1.379,3.574,2.37c1.014,0.991,1.827,2.17,2.44,3.538
		C321.365,34.432,321.672,35.893,321.672,37.449z M319.056,58.6v72.578h-17.475V58.6H319.056z"/>
	<path d="M364.537,151.126c-0.519,1.226-1.191,2.158-2.016,2.795s-2.086,0.954-3.784,0.954h-13.015l13.581-29.073L329.946,58.6
		h15.279c1.416,0,2.5,0.331,3.255,0.991c0.753,0.66,1.319,1.415,1.698,2.263l15.492,37.634c0.517,1.226,0.964,2.499,1.344,3.819
		c0.377,1.321,0.707,2.642,0.991,3.96c0.375-1.366,0.788-2.686,1.236-3.96c0.447-1.273,0.931-2.571,1.45-3.892l14.572-37.562
		c0.377-0.942,1.001-1.72,1.874-2.334c0.871-0.612,1.852-0.92,2.937-0.92h14.005L364.537,151.126z"/>
	<path d="M442.915,57.469c5.424,0,10.338,0.873,14.75,2.617c4.408,1.746,8.17,4.221,11.283,7.428
		c3.11,3.208,5.516,7.121,7.214,11.743c1.697,4.623,2.546,9.786,2.546,15.491c0,5.755-0.849,10.942-2.546,15.564
		c-1.698,4.622-4.104,8.56-7.214,11.812c-3.113,3.254-6.875,5.754-11.283,7.499c-4.412,1.743-9.326,2.616-14.75,2.616
		s-10.353-0.873-14.785-2.616c-4.431-1.745-8.217-4.245-11.354-7.499c-3.136-3.253-5.564-7.191-7.284-11.812
		c-1.723-4.622-2.583-9.809-2.583-15.564c0-5.705,0.86-10.868,2.583-15.491c1.72-4.622,4.148-8.535,7.284-11.743
		c3.137-3.207,6.923-5.682,11.354-7.428C432.562,58.341,437.491,57.469,442.915,57.469z M442.915,118.799
		c6.035,0,10.506-2.027,13.406-6.084c2.898-4.055,4.351-9.997,4.351-17.826c0-7.827-1.452-13.794-4.351-17.896
		c-2.9-4.104-7.371-6.154-13.406-6.154c-6.131,0-10.657,2.063-13.581,6.189c-2.926,4.127-4.387,10.08-4.387,17.861
		c0,7.782,1.461,13.713,4.387,17.79C432.258,116.758,436.784,118.799,442.915,118.799z"/>
</g>
</svg>
