<svg width="151" height="32" viewBox="0 0 151 32" fill="none" xmlns="http://www.w3.org/2000/svg">
<path fill-rule="evenodd" clip-rule="evenodd" d="M8.98527 6.49548C7.80633 7.64841 6.70995 9.7083 6.53007 13.1003C6.31534 17.1492 7.52984 22.6259 13.2931 28.4327L9.75257 32C2.9982 25.1946 1.23854 18.3288 1.5301 12.8311C1.76302 8.43909 3.2387 5.08477 5.4979 2.87542C7.74548 0.677427 10.6334 -0.240493 13.3213 0.0533055C16.0009 0.34619 18.5403 1.86838 19.83 4.53342C21.128 7.21551 20.9308 10.5583 19.1891 14.0885C17.4919 17.5286 17.6774 19.8354 18.2608 21.147C18.8493 22.4702 20.0133 23.2092 21.2317 23.324C22.427 23.4367 23.6789 22.9505 24.5093 21.6744C25.3646 20.36 25.9938 17.8355 24.9482 13.5705L29.8092 12.3608C31.0586 17.4569 30.5693 21.5626 28.6967 24.4405C26.7991 27.3567 23.7134 28.6249 20.7653 28.347C17.8401 28.0712 15.0547 26.2747 13.6916 23.2102C12.3234 20.1343 12.555 16.2015 14.7054 11.8429C15.9677 9.28423 15.7611 7.63654 15.3294 6.74446C14.8894 5.83535 13.9788 5.19965 12.7813 5.06876C11.5921 4.93878 10.1758 5.3312 8.98527 6.49548Z" fill="black"/>
<path d="M134.483 19.9502L135.605 23.0888C134.719 23.5625 133.626 23.8882 132.446 23.8882C129.906 23.8882 127.781 22.6742 127.781 19.1803V1H131.885V18.7362C131.885 19.8021 132.327 20.2462 133.184 20.2462C133.626 20.2462 134.04 20.1574 134.483 19.9502Z" fill="black"/>
<path fill-rule="evenodd" clip-rule="evenodd" d="M59.3304 19.7133L60.5113 22.9407C59.5961 23.5033 58.4446 23.8882 57.0866 23.8882C55.1675 23.8882 53.7504 23.2368 52.5104 20.8384L49.5876 15.5087H46.1628V23.5921H42V2.12516H52.1856C55.9351 2.12516 58.917 4.73081 58.917 8.81694C58.917 12.2517 56.8208 14.4724 53.9571 15.1238L56.1713 19.0026C56.6437 19.8909 57.0866 20.187 57.7656 20.187C58.2675 20.187 58.7694 20.039 59.3304 19.7133ZM46.1628 5.79676V11.8371H51.7723C53.5437 11.8371 54.7837 10.5935 54.7837 8.81694C54.7837 7.01075 53.5437 5.79676 51.7723 5.79676H46.1628Z" fill="black"/>
<path fill-rule="evenodd" clip-rule="evenodd" d="M64.5768 16.545C64.8425 19.0915 66.4367 20.3647 68.4148 20.3647C70.2748 20.3647 71.4853 19.5356 72.1643 17.9663L75.7072 19.2987C74.5262 22.082 71.9281 23.8882 68.3853 23.8882C63.8682 23.8882 60.4435 20.6904 60.4435 15.8048C60.4435 10.8896 63.9272 7.69177 68.4739 7.69177C73.0796 7.69177 76.091 10.4751 76.091 15.5087V16.545H64.5768ZM68.4739 11.2153C66.8206 11.2153 65.3739 12.1036 64.8129 13.9394H71.81C71.3672 12.1332 70.1862 11.2153 68.4739 11.2153Z" fill="black"/>
<path d="M85.7323 20.2462C83.4885 20.2462 81.7171 18.8546 81.7171 15.8048C81.7171 12.7254 83.4885 11.3338 85.7323 11.3338C87.5037 11.3338 88.9799 12.2517 89.4522 14.1467L93.5265 13.4064C92.7294 9.64601 89.7179 7.69177 85.7323 7.69177C81.2151 7.69177 77.6133 10.712 77.6133 15.8048C77.6133 20.8977 81.2151 23.8882 85.7323 23.8882C89.7179 23.8882 92.7294 21.934 93.5265 18.1736L89.4522 17.4629C88.9799 19.3283 87.5037 20.2462 85.7323 20.2462Z" fill="black"/>
<path d="M106.117 7.98787H110.22V23.5921H106.323V21.4602C105.349 22.9111 103.784 23.8882 101.6 23.8882C97.8501 23.8882 95.3996 21.2234 95.3996 17.4926V7.98787H99.5034V16.9892C99.5034 19.0026 100.891 20.3647 102.84 20.3647C104.729 20.3647 106.117 19.0026 106.117 16.9892V7.98787Z" fill="black"/>
<path d="M125.82 13.3768C125.82 9.79405 123.517 7.72138 120.329 7.72138C118.616 7.72138 117.376 8.46162 116.579 9.58679V7.98787H112.859V23.5921H116.963V14.1171C116.963 12.2517 117.878 11.2449 119.413 11.2449C121.037 11.2449 121.864 12.1924 121.864 14.2355V14.4724L125.82 14.1171V13.3768Z" fill="black"/>
<path d="M150.652 7.98787H146.577V16.545C146.577 18.5585 145.19 19.8909 143.182 19.8909C141.027 19.8909 139.935 18.5585 139.935 16.5154V7.98787H135.831V16.7227C135.831 20.6904 138.311 23.148 141.854 23.148C144.009 23.148 145.574 22.3485 146.577 21.0457V22.6742C146.577 25.7832 144.717 26.9676 142.356 26.9676C140.299 26.9676 138.985 26.1573 137.906 24.5743L134.95 27.0723C136.666 29.454 139.2 30.58 142.533 30.58C147.227 30.58 150.652 28.004 150.652 22.6742V7.98787Z" fill="black"/>
</svg>
