<svg width="196" height="32" viewBox="0 0 196 32" fill="none" xmlns="http://www.w3.org/2000/svg">
<g clip-path="url(#clip0_19152_489073)">
<path d="M0 1.52381C0 0.682235 0.682233 0 1.52381 0H31.0857C31.5906 0 32 0.409339 32 0.914286V30.4761C32 31.3177 31.3177 32 30.4761 32C13.6447 32 0 18.3553 0 1.52381Z" fill="#1063E2"/>
<path d="M43.3001 14.5284C43.0603 14.5002 43.1504 14.2457 43.2402 14.0195C43.4799 13.3409 43.5398 12.8602 43.5398 12.323V11.4206C43.5398 11.2944 43.4374 11.192 43.3113 11.192H41.3711C41.245 11.192 41.1426 11.2944 41.1426 11.4206V25.4402C41.1426 25.5664 41.245 25.6688 41.3711 25.6688H43.3113C43.4374 25.6688 43.5398 25.5664 43.5398 25.4402V18.289C43.5398 14.5705 44.781 13.058 49.0477 13.2705C49.1794 13.277 49.2932 13.1728 49.2932 13.0409V11.1944C49.2932 11.0682 49.1887 10.9657 49.0626 10.9671C45.3949 11.0064 44.5979 12.0029 43.5997 14.3023C43.5398 14.4154 43.4799 14.5567 43.3001 14.5284Z" fill="#1063E2"/>
<path d="M56.9721 25.8286C59.7616 25.8286 61.8235 23.9058 62.3392 22.4638C62.3693 22.3791 62.4907 22.2094 62.6727 22.2659C62.9152 22.3508 62.7636 22.6052 62.6727 22.8314C62.4299 23.4251 62.3693 23.8777 62.3693 24.3865V25.3739C62.3693 25.5001 62.4717 25.6025 62.5979 25.6025H64.5666C64.6928 25.6025 64.7952 25.5001 64.7952 25.3739V11.3542C64.7952 11.228 64.6928 11.1257 64.5666 11.1257H62.5979C62.4717 11.1257 62.3693 11.228 62.3693 11.3542V18.3357C62.3693 21.7853 59.792 23.9058 57.4267 23.9058C55.274 23.9058 53.6365 22.9728 53.6365 19.6081V11.3542C53.6365 11.228 53.5341 11.1257 53.408 11.1257H51.4395C51.3131 11.1257 51.2109 11.228 51.2109 11.3542V19.7212C51.2109 23.9625 53.394 25.8286 56.9721 25.8286Z" fill="#1063E2"/>
<path d="M79.2207 6.17145C79.0945 6.17145 78.9921 6.27378 78.9921 6.40002V12.0736C78.9921 12.5894 79.0529 13.0766 79.2648 13.6497C79.3558 13.9076 79.5375 14.1655 79.2648 14.2514C79.0831 14.3088 78.962 14.0509 78.9316 13.9649C78.2349 11.9876 76.2047 10.6981 73.7204 10.6981C69.6906 10.6981 66.873 13.9076 66.873 18.2633C66.873 22.6191 69.6906 25.8286 73.7204 25.8286C76.1441 25.8286 78.2045 24.5678 78.9316 22.5044C78.962 22.4185 79.0831 22.1892 79.2952 22.2752C79.4769 22.3611 79.386 22.5904 79.2952 22.8197C79.0529 23.4501 78.9921 23.8514 78.9921 24.3385V25.3708C78.9921 25.4969 79.0945 25.5993 79.2207 25.5993H81.1876C81.3137 25.5993 81.4161 25.4969 81.4161 25.3708V6.40002C81.4161 6.27378 81.3137 6.17145 81.1876 6.17145H79.2207ZM74.084 23.7655C70.9329 23.7655 69.297 21.2436 69.297 18.2633C69.297 15.2831 70.9329 12.7613 74.084 12.7613C76.9624 12.7613 78.9921 15.2831 78.9921 18.2633C78.9921 21.2436 76.9624 23.7655 74.084 23.7655Z" fill="#1063E2"/>
<path d="M95.5745 6.17145C95.4484 6.17145 95.346 6.27378 95.346 6.40002V12.0736C95.346 12.5894 95.4054 13.0766 95.6127 13.6497C95.7016 13.9076 95.8795 14.1655 95.6127 14.2514C95.4351 14.3088 95.3165 14.0509 95.2868 13.9649C94.6054 11.9876 92.6198 10.6981 90.1901 10.6981C86.2491 10.6981 83.4932 13.9076 83.4932 18.2633C83.4932 22.6191 86.2491 25.8286 90.1901 25.8286C92.5606 25.8286 94.5757 24.5678 95.2868 22.5044C95.3165 22.4185 95.4351 22.1892 95.6424 22.2752C95.8203 22.3611 95.7313 22.5904 95.6424 22.8197C95.4054 23.4501 95.346 23.8514 95.346 24.3385V25.3708C95.346 25.4969 95.4484 25.5993 95.5745 25.5993H97.4881C97.6143 25.5993 97.7167 25.4969 97.7167 25.3708V6.40002C97.7167 6.27378 97.6143 6.17145 97.4881 6.17145H95.5745ZM90.5457 23.7655C87.4639 23.7655 85.8639 21.2436 85.8639 18.2633C85.8639 15.2831 87.4639 12.7613 90.5457 12.7613C93.3608 12.7613 95.346 15.2831 95.346 18.2633C95.346 21.2436 93.3608 23.7655 90.5457 23.7655Z" fill="#1063E2"/>
<path d="M114.337 17.9749C114.337 13.0207 110.772 10.9658 107.363 10.9658C102.961 10.9658 99.9541 13.9778 99.9541 18.3972C99.9541 22.3663 102.589 25.8285 107.425 25.8285C111.179 25.8285 113.33 23.4615 113.986 21.1528C114.027 21.0113 113.918 20.8743 113.77 20.8743H111.618C111.52 20.8743 111.434 20.9366 111.4 21.0283C110.825 22.5876 109.709 23.8018 107.518 23.8018C104.456 23.8018 102.615 21.6372 102.389 19.1996C102.377 19.0695 102.481 18.9602 102.612 18.9602H114.073C114.189 18.9602 114.286 18.874 114.298 18.7591C114.32 18.5379 114.337 18.2724 114.337 17.9749ZM107.549 12.8799C109.95 12.8799 111.538 14.4114 111.833 16.9117C111.849 17.0444 111.743 17.1586 111.609 17.1586H102.76C102.621 17.1586 102.513 17.035 102.538 16.898C102.938 14.655 104.295 12.8799 107.549 12.8799Z" fill="#1063E2"/>
<path d="M125.307 11.2453C125.336 11.1007 125.225 10.9657 125.078 10.9675C124.272 10.9772 123.598 11.0285 123.027 11.1248C122.31 11.2455 121.754 11.4369 121.3 11.705C120.389 12.2439 119.892 13.0928 119.336 14.3022C119.332 14.3098 119.328 14.3175 119.323 14.3252C119.264 14.4335 119.197 14.5548 119.019 14.5284C118.765 14.5001 118.86 14.2457 118.955 14.0195C119.209 13.3409 119.272 12.8602 119.272 12.323V11.4256C119.272 11.2966 119.168 11.192 119.039 11.192H116.968C116.839 11.192 116.734 11.2966 116.734 11.4256V25.4352C116.734 25.5641 116.839 25.6688 116.968 25.6688H119.039C119.168 25.6688 119.272 25.5641 119.272 25.4352V18.289C119.272 16.1947 119.689 14.8002 120.861 14.0195C121.407 13.6552 122.118 13.4246 123.027 13.3188C123.525 13.2609 124.082 13.2404 124.705 13.2559C124.82 13.2588 124.92 13.1795 124.943 13.0672L125.307 11.2453Z" fill="#1063E2"/>
<path d="M126.564 20.6491C126.433 20.6491 126.329 20.7586 126.34 20.8885C126.592 23.9298 128.908 25.8285 132.687 25.8285C136.594 25.8285 139.109 24.0551 139.109 21.1276C139.109 18.8194 136.86 17.7498 133.279 17.3275C129.402 16.8771 129.136 15.9482 129.136 15.1319C129.136 14.1748 130.053 12.8799 132.687 12.8799C135.326 12.8799 136.154 14.1715 136.308 15.4815C136.322 15.6012 136.421 15.6949 136.542 15.6949H138.419C138.552 15.6949 138.657 15.5814 138.642 15.4492C138.336 12.8707 136.362 10.9658 132.776 10.9658C128.869 10.9658 126.768 13.2459 126.768 15.4134C126.768 17.2994 128.455 18.8194 131.711 19.1853C135.736 19.6357 136.742 20.1424 136.742 21.5499C136.742 22.4788 135.824 23.9143 132.806 23.9143C129.875 23.9143 128.769 22.3581 128.644 20.8729C128.634 20.7488 128.533 20.6491 128.408 20.6491H126.564Z" fill="#1063E2"/>
<path d="M148.624 10.927C148.753 10.927 148.857 11.0316 148.857 11.1606V12.6513C148.857 12.7803 148.753 12.8849 148.624 12.8849H145.735C145.606 12.8849 145.501 12.9895 145.501 13.1185V21.5226C145.501 23.1926 145.861 23.7108 147.539 23.7108C148.023 23.7108 148.46 23.6418 148.791 23.5664C148.923 23.5364 149.057 23.6187 149.083 23.7513L149.332 24.9954C149.353 25.0989 149.302 25.2036 149.205 25.2464C148.89 25.3858 148.276 25.6141 147.539 25.6688C144.372 25.9033 143.104 24.7762 143.104 21.3498V13.1185C143.104 12.9895 143 12.8849 142.871 12.8849H140.461C140.332 12.8849 140.228 12.7803 140.228 12.6513V11.1606C140.228 11.0316 140.332 10.927 140.461 10.927H142.871C143 10.927 143.104 10.8224 143.104 10.6934V6.84236C143.104 6.731 143.183 6.63511 143.292 6.61326L145.222 6.22727C145.367 6.19836 145.501 6.30892 145.501 6.45635V10.6934C145.501 10.8224 145.606 10.927 145.735 10.927H148.624Z" fill="#1063E2"/>
<path d="M150.456 21.578C150.456 24.0551 152.818 25.8285 155.61 25.8285C158.494 25.8285 160.856 24.421 161.684 22.141C161.715 22.0284 161.807 21.8314 161.991 21.8876C162.237 21.9439 162.145 22.1973 162.052 22.4224C161.838 23.0137 161.746 23.4359 161.746 23.9988V25.3748C161.746 25.501 161.848 25.6034 161.974 25.6034H163.971C164.098 25.6034 164.2 25.501 164.2 25.3748V17.3838C164.2 12.0918 161.286 10.9658 157.758 10.9658C154.479 10.9658 151.664 12.2146 151 15.2028C150.969 15.3413 151.077 15.4697 151.219 15.4697H153.146C153.258 15.4697 153.352 15.3886 153.378 15.2799C153.675 14.0513 154.886 12.8799 157.512 12.8799C161.102 12.8799 161.715 14.4563 161.746 15.5823C161.777 17.1868 158.862 16.9616 155.978 17.1868C153.217 17.4119 150.456 18.3972 150.456 21.578ZM161.286 17.9127C161.465 17.8067 161.738 17.9318 161.725 18.1396C161.498 21.7569 159.42 23.6738 156.622 23.9143C154.076 24.1396 152.91 22.8166 152.91 21.4373C152.91 19.9454 154.137 19.298 156.04 19.0164C158.103 18.7009 160.167 18.5737 161.286 17.9127Z" fill="#1063E2"/>
<path d="M166.277 18.3972C166.277 22.4788 169.097 25.8285 173.726 25.8285C177.74 25.8285 180.11 23.3392 180.473 20.6721C180.491 20.5391 180.385 20.4239 180.251 20.4239H178.305C178.193 20.4239 178.097 20.506 178.075 20.6162C177.704 22.4603 176.247 23.8018 173.788 23.8018C170.293 23.8018 168.73 21.3247 168.73 18.3972C168.73 15.4697 170.293 12.9926 173.788 12.9926C176.247 12.9926 177.704 14.3341 178.075 16.1781C178.097 16.2884 178.193 16.3704 178.305 16.3704H180.251C180.385 16.3704 180.491 16.2552 180.473 16.1222C180.108 13.4553 177.71 10.9658 173.726 10.9658C169.006 10.9658 166.277 14.3156 166.277 18.3972Z" fill="#1063E2"/>
<path d="M195.51 25.6688C195.704 25.6688 195.81 25.4409 195.684 25.2924L188.864 17.2391C188.784 17.1449 188.793 17.0042 188.885 16.9216L195.081 11.3428C195.237 11.2026 195.138 10.9443 194.928 10.9443H192.438C192.379 10.9443 192.322 10.9672 192.28 11.008L185.185 17.8176C185.065 17.9327 184.944 18.0765 184.795 17.9614C184.616 17.8464 184.735 17.6738 184.855 17.5301C185.305 16.9549 185.454 16.466 185.454 15.7183V6.40002C185.454 6.27378 185.351 6.17145 185.225 6.17145H183.286C183.16 6.17145 183.058 6.27378 183.058 6.40002V25.4403C183.058 25.5664 183.16 25.6688 183.286 25.6688H185.225C185.351 25.6688 185.454 25.5664 185.454 25.4403V20.1045C185.454 20.0401 185.481 19.9786 185.529 19.9353L186.955 18.6409C187.052 18.5529 187.203 18.5642 187.286 18.6656L192.938 25.5847C192.981 25.638 193.046 25.6688 193.115 25.6688H195.51Z" fill="#1063E2"/>
</g>
<defs>
<clipPath id="clip0_19152_489073">
<rect width="195.886" height="32" fill="white"/>
</clipPath>
</defs>
</svg>
